<?xml version="1.0" encoding="utf-8"?>
<!-- Generator: Adobe Illustrator 26.0.1, SVG Export Plug-In . SVG Version: 6.00 Build 0)  -->
<svg version="1.1" id="Layer_1" xmlns="http://www.w3.org/2000/svg" xmlns:xlink="http://www.w3.org/1999/xlink" x="0px" y="0px"
	 viewBox="0 0 385 527.9" style="enable-background:new 0 0 385 527.9;" xml:space="preserve">
<style type="text/css">
	.st0{fill:#906D4F;}
</style>
<g>
	<path class="st0" d="M341.2,405.4v-140c0-19.3-15.7-35-35-35H78.8c-19.3,0-35,15.7-35,35v192.5c0,19.3,15.7,35,35,35h227.5
		c19.3,0,35-15.7,35-35V405.4z M78.8,247.9h227.5c9.7,0,17.5,7.8,17.5,17.5H61.2C61.2,255.8,69.1,247.9,78.8,247.9z M306.2,475.4
		H78.8c-9.7,0-17.5-7.8-17.5-17.5v-175h262.5v26.2h-70c-29,0-52.5,23.5-52.5,52.5s23.5,52.5,52.5,52.5h70v43.8
		C323.8,467.6,315.9,475.4,306.2,475.4z M323.8,396.7h-70c-19.3,0-35-15.7-35-35s15.7-35,35-35h70V396.7z"/>
	<path class="st0" d="M17.5,212.9h35v-17.5H8.8c-4.8,0-8.8,3.9-8.8,8.8v43.8h17.5V212.9z"/>
	<path class="st0" d="M376.2,195.4h-43.8v17.5h35v35H385v-43.8C385,199.3,381.1,195.4,376.2,195.4z"/>
	<path class="st0" d="M17.5,475.4H0v43.8c0,4.8,3.9,8.8,8.8,8.8h43.8v-17.5h-35V475.4z"/>
	<path class="st0" d="M367.5,510.4h-35v17.5h43.8c4.8,0,8.8-3.9,8.8-8.8v-43.8h-17.5V510.4z"/>
	<path class="st0" d="M235.2,13.4c-25.6-17.9-59.9-17.9-85.5,0c-31.6,22.1-41.1,65.5-21.5,98.8l48.9,83.2h-28.5v17.5h87.5v-17.5
		h-28.5l48.9-83.2C276.3,79,266.9,35.6,235.2,13.4L235.2,13.4z M241.6,103.4l-49.1,83.5l-49.1-83.5c-15-25.5-7.8-58.7,16.4-75.6
		c9.8-6.8,21.2-10.3,32.7-10.3s22.9,3.4,32.7,10.3C249.4,44.7,256.6,77.9,241.6,103.4L241.6,103.4z"/>
	<path class="st0" d="M192.5,37.9c-19.3,0-35,15.7-35,35s15.7,35,35,35s35-15.7,35-35S211.8,37.9,192.5,37.9z M192.5,90.4
		c-9.7,0-17.5-7.8-17.5-17.5s7.8-17.5,17.5-17.5S210,63.3,210,72.9S202.2,90.4,192.5,90.4z"/>
</g>
</svg>
