<?xml version="1.0" encoding="utf-8"?>
<!-- Generator: Adobe Illustrator 26.0.1, SVG Export Plug-In . SVG Version: 6.00 Build 0)  -->
<svg version="1.1" id="Layer_1" xmlns="http://www.w3.org/2000/svg" xmlns:xlink="http://www.w3.org/1999/xlink" x="0px" y="0px"
	 viewBox="0 0 432 530" style="enable-background:new 0 0 432 530;" xml:space="preserve">
<style type="text/css">
	.st0{fill:#906D4F;}
</style>
<g>
	<path class="st0" d="M426.2,381.5l-49.3-18c-2.2-0.8-4.6-0.7-6.7,0.3s-3.7,2.8-4.5,4.9l-3,8.2l-57.1-20.8l0,0
		c-1.4-0.5-3-0.7-4.5-0.4l-118.9,21c-10.8,1.9-20,8.8-25,18.5l-54.5-19.9c-8.7-3.2-18.4-2.8-26.8,1.2c-10.7,5-18.1,15-19.9,26.6
		c-1.1,8.2,0.7,16.5,5.1,23.5c4.3,7,11,12.3,18.8,15L259.5,507h0c1,0.4,2,0.5,3,0.5c1,0,1.9-0.2,2.8-0.5l50.2-16.9l5.3,1.9l-3,8.2
		c-0.8,2.2-0.7,4.6,0.3,6.7c1,2.1,2.8,3.7,4.9,4.5l49.3,18v0c1,0.4,2,0.5,3,0.5c1.3,0,2.5-0.3,3.7-0.8c2.1-1,3.7-2.8,4.5-4.9
		l47.9-131.6C433.1,388.1,430.8,383.1,426.2,381.5L426.2,381.5z M318.6,472.6c-1.9-0.7-3.9-0.7-5.8-0.1l-50.2,16.9L85.8,425.2
		c-4-1.3-7.4-4-9.7-7.5c-2.3-3.5-3.3-7.7-2.9-11.9c0.8-5.9,4.6-10.9,10-13.4c4.2-2,9-2.2,13.4-0.6l56.8,20.7h0
		c0,1.6,0.1,3.2,0.4,4.8c1.6,9.1,6.8,17.2,14.4,22.5c7.6,5.3,17,7.4,26.1,5.9l98.5-17.4l-3-17.2l-98.5,17.4
		c-4.6,0.8-9.3-0.2-13.1-2.9c-3.8-2.6-6.4-6.7-7.2-11.2c-0.4-2.3-0.3-4.6,0.2-6.9c0.1-0.8,0.3-1.5,0.6-2.2
		c2.1-5.9,7.3-10.2,13.4-11.3l116.6-20.6l54.9,20l-29.9,82.2L318.6,472.6z M370.2,510l-32.9-12L379.2,383l32.9,12L370.2,510z"/>
	<path class="st0" d="M192.5,236.2H210v17.5h-17.5V236.2z"/>
	<path class="st0" d="M227.5,236.2H245v17.5h-17.5V236.2z"/>
	<path class="st0" d="M157.5,236.2H175v17.5h-17.5V236.2z"/>
	<path class="st0" d="M192.5,201.2H210v17.5h-17.5V201.2z"/>
	<path class="st0" d="M227.5,201.2H245v17.5h-17.5V201.2z"/>
	<path class="st0" d="M157.5,201.2H175v17.5h-17.5V201.2z"/>
	<path class="st0" d="M192.5,166.2H210v17.5h-17.5V166.2z"/>
	<path class="st0" d="M227.5,166.2H245v17.5h-17.5V166.2z"/>
	<path class="st0" d="M157.5,166.2H175v17.5h-17.5V166.2z"/>
	<path class="st0" d="M192.5,131.2H210v17.5h-17.5V131.2z"/>
	<path class="st0" d="M227.5,131.2H245v17.5h-17.5V131.2z"/>
	<path class="st0" d="M157.5,131.2H175v17.5h-17.5V131.2z"/>
	<path class="st0" d="M192.5,96.2H210v17.5h-17.5V96.2z"/>
	<path class="st0" d="M227.5,96.2H245v17.5h-17.5V96.2z"/>
	<path class="st0" d="M157.5,96.2H175v17.5h-17.5V96.2z"/>
	<path class="st0" d="M297.5,175h35v17.5h-35V175z"/>
	<path class="st0" d="M297.5,210h35v17.5h-35V210z"/>
	<path class="st0" d="M297.5,245h35v17.5h-35V245z"/>
	<path class="st0" d="M297.5,280h35v17.5h-35V280z"/>
	<path class="st0" d="M70,210h35v17.5H70V210z"/>
	<path class="st0" d="M70,245h35v17.5H70V245z"/>
	<path class="st0" d="M70,280h35v17.5H70V280z"/>
	<path class="st0" d="M402.5,341.2v-17.5h-35v-175c0-2.3-0.9-4.5-2.6-6.2s-3.9-2.6-6.2-2.6H280V70c0-2.3-0.9-4.5-2.6-6.2
		s-3.9-2.6-6.2-2.6h-17.5V35c0-2.3-0.9-4.5-2.6-6.2s-3.9-2.6-6.2-2.6h-35V0h-17.5v26.2h-35c-4.8,0-8.8,3.9-8.8,8.8v26.2h-17.5
		c-4.8,0-8.8,3.9-8.8,8.8v105H43.8c-4.8,0-8.8,3.9-8.8,8.8v140H0v17.5H402.5z M183.8,323.8v-35h35v35H183.8z M350,157.5v166.2h-70
		V157.5H350z M166.2,43.8h70v17.5h-70V43.8z M140,78.8h122.5v245h-26.2V280c0-2.3-0.9-4.5-2.6-6.2s-3.9-2.6-6.2-2.6H175
		c-4.8,0-8.8,3.9-8.8,8.8v43.8H140V78.8z M52.5,192.5h70v131.2h-70V192.5z"/>
</g>
</svg>
