<?xml version="1.0" encoding="utf-8"?>
<!-- Generator: Adobe Illustrator 26.0.1, SVG Export Plug-In . SVG Version: 6.00 Build 0)  -->
<svg version="1.1" id="Layer_1" xmlns="http://www.w3.org/2000/svg" xmlns:xlink="http://www.w3.org/1999/xlink" x="0px" y="0px"
	 viewBox="0 0 411.9 467.9" style="enable-background:new 0 0 411.9 467.9;" xml:space="preserve">
<style type="text/css">
	.st0{fill:#906D4F;}
</style>
<g>
	<path class="st0" d="M301.6,265.2c33.1-27.5,54.3-69,54.3-115.3C355.9,67.3,288.6,0,205.9,0C123.3,0,56,67.3,56,149.9
		c0,46.3,21.1,87.8,54.2,115.3C42.8,301.2,0,375.2,0,458c0,5.5,4.4,9.9,9.9,9.9s9.9-4.4,9.9-9.9c0-79.2,42.8-149.3,109.1-179.8
		c8.5,5.1,17.4,9.4,26.9,12.7c-0.8,3.7-1.3,7.4-1.3,11.2c0,18.6,10,34.8,24.8,43.9l-19.1,89.3c-0.5,2.1-0.2,4.4,0.7,6.3l9.4,19.7
		c2.4,4.9,8.2,6.9,13.2,4.6c4.9-2.4,7-8.2,4.6-13.2l-8-16.7l17.4-81.1h16.9l17.4,81.1l-8,16.7c-2.4,4.9-0.3,10.8,4.6,13.2
		c1.4,0.7,2.8,1,4.2,1c3.7,0,7.2-2.1,8.9-5.6l9.4-19.7c0.9-2,1.2-4.2,0.8-6.3L232.6,346c14.8-9.1,24.8-25.3,24.8-43.9
		c0-3.8-0.5-7.5-1.3-11.2c9.4-3.4,18.3-7.6,26.7-12.7c66.4,30.5,109.2,100.3,109.2,179.7c0,5.5,4.4,9.9,9.9,9.9s9.9-4.4,9.9-9.9
		C411.9,375,369.1,301.1,301.6,265.2L301.6,265.2z M205.9,334c-17.5,0-31.8-14.3-31.8-31.8c0-1.9,0.2-3.8,0.5-5.7
		c10.1,2.2,20.5,3.3,31.3,3.3c10.7,0,21.2-1.2,31.3-3.3c0.3,1.9,0.6,3.8,0.6,5.7C237.8,319.7,223.5,334,205.9,334L205.9,334z
		 M205.9,280.1c-71.8,0-130.2-58.4-130.2-130.2c0-71.8,58.4-130.2,130.2-130.2c71.8,0,130.2,58.4,130.2,130.2
		C336.1,221.7,277.7,280.1,205.9,280.1z"/>
</g>
</svg>
