<?xml version="1.0" encoding="utf-8"?>
<!-- Generator: Adobe Illustrator 26.0.1, SVG Export Plug-In . SVG Version: 6.00 Build 0)  -->
<svg version="1.1" id="Layer_1" xmlns="http://www.w3.org/2000/svg" xmlns:xlink="http://www.w3.org/1999/xlink" x="0px" y="0px"
	 viewBox="0 0 525 516.3" style="enable-background:new 0 0 525 516.3;" xml:space="preserve">
<style type="text/css">
	.st0{fill:#906D4F;}
</style>
<g>
	<path class="st0" d="M488.3,333l-213.9,42.8l-40.7-40.7c-1.6-1.6-3.9-2.6-6.2-2.6H8.8c-4.8,0-8.8,3.9-8.8,8.8v131.2
		c0,4.8,3.9,8.8,8.8,8.8h122.5c4.8,0,8.8-3.9,8.8-8.8v-8.8h24l94.3,51.4c1.3,0.7,2.7,1.1,4.2,1.1h26.2c1.6,0,3.1-0.4,4.5-1.2
		l218.7-130.8c8.3-4.8,13.1-14,13.1-25.1c0-7.3-3.2-14.1-9.1-19C508.7,334,498.2,331.3,488.3,333L488.3,333z M17.5,350h70v113.8h-70
		V350z M122.5,463.8H105V350h17.5V463.8z M503,369.1L286.3,498.8h-21.6l-94.3-51.4c-1.3-0.7-2.7-1.1-4.2-1.1H140V350h83.9l67.4,67.4
		c6.2,6.2,6.2,16.4,0,22.6c-6.2,6.2-16.4,6.2-22.6,0l-43.8-43.8l-12.4,12.4l43.8,43.8c6.5,6.5,15.1,9.8,23.7,9.8
		c8.6,0,17.2-3.3,23.7-9.8c13.1-13.1,13.1-34.3,0-47.4l-14.4-14.4l202.2-40.4c4.6-0.8,9.8,0.5,13.1,3.3c2.9,2.4,2.9,4.8,2.9,5.6
		C507.5,361.3,507.1,366.7,503,369.1L503,369.1z"/>
	<path class="st0" d="M12.7,314.1l189.1-94.6l162.7,59.9c3.2,1.2,6.8,0.4,9.2-2l127.6-127.6l6.3,43.9l17.3-2.5l-8.8-61.2
		c-0.5-3.8-3.6-6.9-7.4-7.4l-61.2-8.8l-2.5,17.3l43.9,6.3L365.3,261.1l-161-59.3c-2.3-0.8-4.8-0.7-6.9,0.4L4.8,298.4L12.7,314.1z"/>
	<path class="st0" d="M358.7,96.2c0-53.1-43.2-96.2-96.2-96.2s-96.2,43.2-96.2,96.2s43.2,96.2,96.2,96.2S358.7,149.3,358.7,96.2z
		 M183.7,96.2c0-43.4,35.3-78.8,78.8-78.8s78.8,35.3,78.8,78.8S305.9,175,262.5,175S183.7,139.7,183.7,96.2z"/>
	<path class="st0" d="M212.6,133.8l87.5-87.5l12.4,12.4l-87.5,87.5L212.6,133.8z"/>
	<path class="st0" d="M227.5,61.2H245v17.5h-17.5V61.2z"/>
	<path class="st0" d="M280,113.8h17.5v17.5H280V113.8z"/>
</g>
</svg>
