<?xml version="1.0" encoding="utf-8"?>
<!-- Generator: Adobe Illustrator 26.0.1, SVG Export Plug-In . SVG Version: 6.00 Build 0)  -->
<svg version="1.1" id="Layer_1" xmlns="http://www.w3.org/2000/svg" xmlns:xlink="http://www.w3.org/1999/xlink" x="0px" y="0px"
	 viewBox="0 0 532 389.9" style="enable-background:new 0 0 532 389.9;" xml:space="preserve">
<style type="text/css">
	.st0{fill:#906D4F;}
</style>
<g>
	<path class="st0" d="M383.1,6.1C379,2.2,373.5,0,367.8,0c-5.7,0-11.2,2.2-15.3,6.1l-65.4,65.5c-4,4.1-6.3,9.6-6.3,15.3
		c0,5.7,2.3,11.3,6.3,15.3l17.8,17.5c-11.2-1-27.6,5-29.1,4.9l-40.6-12.6l9.9-9.9h0c4.1-4.1,6.4-9.6,6.4-15.3S249,75.7,245,71.6
		L179.6,6.1C175.5,2.2,170,0,164.3,0c-5.7,0-11.2,2.2-15.3,6.1L6.4,148.6C2.3,152.7,0,158.2,0,164s2.3,11.3,6.4,15.4l65.3,65.4
		c4.1,4.1,9.6,6.3,15.3,6.3c5.8,0,11.3-2.3,15.3-6.3l4.5-4.5c11.6,24.2,50.4,73.5,77.6,100.8l35.7,35.7c7.1,8,17.3,12.8,28,13.2
		c8.9-0.1,17.4-3.8,23.5-10.3c5-4.6,8.1-10.9,8.8-17.6c9.4,2.4,19.4,0.1,26.8-6.2c5-4.6,8.1-10.8,8.8-17.6
		c9.4,2.4,19.4,0.1,26.8-6.2c5-4.6,8.1-10.9,8.8-17.6c6.9,1.9,14.3,1.2,20.7-2c6.4-3.2,11.4-8.7,14-15.4c2.6-6.7,2.6-14.1,0-20.8
		c13.8-11.7,28.6-22.1,44.4-31.1c4.1,3.7,9.4,5.7,15,5.6c5.5-0.1,10.8-2.4,14.7-6.3l65.4-65.1c4.1-4.1,6.3-9.6,6.3-15.3
		c0-5.8-2.3-11.3-6.3-15.3L383.1,6.1z M86.8,222.4L28.6,164L164.3,28.3l58.4,58.5L86.8,222.4z M360.6,288.9
		c-1.5-0.1-2.9-0.4-4.4-0.8c-3-0.8-6.1-1.3-9.2-1.4c-5.2-0.1-10.3,1.9-14.1,5.6c-4.3,4.4-6.8,10.2-7.1,16.4c0.1,1.4-0.3,2.8-0.9,4
		c-1.5-0.1-2.9-0.4-4.4-0.8c-3-0.8-6.2-1.3-9.3-1.4c-5.2-0.1-10.3,1.9-14,5.6c-4.3,4.4-6.9,10.2-7.1,16.4c0,2.7,0,2.9-0.9,4
		c-1.5-0.2-2.9-0.4-4.4-0.8c-3-0.9-6.1-1.3-9.2-1.4c-5.2-0.1-10.3,1.9-14.1,5.6c-4.3,4.4-6.7,10.3-6.8,16.5
		c-0.3,2.7-0.3,2.9-1.8,4.4c-2.5,2.5-4.1,2.5-4.6,2.5c-3.7-0.7-6.9-2.7-9.2-5.6l-35.6-35.6h0c-29.1-30.9-55.3-64.3-78.4-99.9
		l88.9-88.8l19.7,5.6c-16.4,12.5-29.5,30.5-40,43.6c-3.5,4.3-6.3,7.8-8.2,9.7c-8.3,8.3-10.9,16.8-7.6,25.9h0
		c3.4,7.2,8.4,13.5,14.4,18.6c5.7,5.9,13.6,9.1,21.8,9.1c16.8,0,33.2-12.9,48.9-25.3c3.4-2.7,13.8-9.7,20.3-14.1
		c25.5,23.2,50.4,46,67.2,63.3C365.1,283.9,361.2,287.7,360.6,288.9L360.6,288.9z M371.8,253.4c-0.8-1-1.4-1.8-2.4-2.7
		c-22.7-22.7-52.4-47.1-70.7-64.6c-5.6-5.6-15.7-3.8-23.6-1.3c-10.7,2.3-20.6,7.3-28.8,14.6c-10.4,8.3-24.6,19.6-32.4,19.6v0
		c-3-1.5-5.7-3.4-8.2-5.6c-2.2-2.2,4.3-9.5,8.5-14.7c14.6-18.1,34-38.5,59.4-48.2c21.6-8.3,36.6-4.8,56.5-4.4l80.9,80
		c-13.7,8.1-26.8,17.2-39.2,27.3L371.8,253.4z M444.6,222.4L309.4,86.8l58.4-58.4L503.4,164L444.6,222.4z"/>
</g>
</svg>
