<?xml version="1.0" encoding="utf-8"?>
<!-- Generator: Adobe Illustrator 24.1.3, SVG Export Plug-In . SVG Version: 6.00 Build 0)  -->
<svg version="1.1" id="Layer_1" xmlns="http://www.w3.org/2000/svg" xmlns:xlink="http://www.w3.org/1999/xlink" x="0px" y="0px"
	 viewBox="0 0 288.6 512.4" style="enable-background:new 0 0 288.6 512.4;" xml:space="preserve">
<style type="text/css">
	.st0{fill:#906D4F;}
</style>
<g>
	<path class="st0" d="M105.7,440.2c0.6,0.4,1.3,0.5,2.1,0.5c0.8,0,1.5-0.2,2.2-0.6l143.6-87c1.3-0.8,2-2.1,2-3.6l0-224.3
		c0-1.5-0.8-2.9-2.1-3.7c-1.3-0.7-2.9-0.7-4.2,0.1l-143.6,87c-1.3,0.8-2,2.1-2,3.6v224.3C103.6,438.1,104.4,439.5,105.7,440.2
		L105.7,440.2z M112,214.6l135.2-81.9v214.4L112,429.1L112,214.6z"/>
	<path class="st0" d="M48.5,445.2c0.9,0,1.8-0.3,2.5-0.9c1-0.8,1.7-2,1.7-3.3V247.3c0-1.9-1.3-3.5-3.1-4
		c-11.8-3.3-21.3-8.5-28.2-15.3c-1.2-1.2-3-1.5-4.6-0.9c-1.6,0.7-2.6,2.2-2.6,3.9v193.7c0,1.1,0.5,2.2,1.3,3
		c8,7.9,18.7,13.7,31.8,17.4C47.7,445.1,48.1,445.2,48.5,445.2L48.5,445.2z M44.3,435.2c-8.7-3-15.9-7.2-21.6-12.4V239.9
		c6.1,4.4,13.4,7.9,21.6,10.5V435.2z"/>
	<path class="st0" d="M286.4,50c-1.3-0.7-2.9-0.7-4.2,0.1l-19.8,12L218,31V4.2c0-1.5-0.8-2.9-2.1-3.7c-1.3-0.7-2.9-0.7-4.2,0.1
		L2,127.6l0,0.1c-1.2,0.7-2.1,2-2.1,3.5l0,328.1c6.8,52.5,71.9,53.1,74.6,53.1h0.1c0.8,0,1.5-0.3,2.1-0.7l0,0.1l209.6-127
		c1.3-0.8,2-2.1,2-3.6l0-327.5C288.6,52.2,287.8,50.8,286.4,50L286.4,50z M70.5,208.7c-13.7-0.9-57-7-62.1-45.4v-8.3
		c16.3,24.7,50.1,29,62.1,29.8V208.7z M8.4,187.2c16.3,24.7,50.3,29.1,62.1,29.9v258.1c-13.8-0.8-56.9-6.6-62.1-45.5V187.2z
		 M73.6,176.5c-7.1-0.2-44.7-2.4-59.6-28.6L205,32.1l49.5,34.7L73.6,176.5z M209.6,25.1l-2-1.4c-1.4-1-3.2-1-4.6-0.2L10.6,140.1
		c-0.7-2.1-1.3-4.4-1.7-6.8L209.6,11.6L209.6,25.1z M8.4,458.7v-5.1c16.3,24.7,50.3,29.2,62.1,29.9v20.2
		C56.7,502.9,13.4,497.1,8.4,458.7L8.4,458.7z M280.2,378.8L78.9,500.7V183.1L280.2,61.1V378.8z"/>
</g>
</svg>
