<?xml version="1.0" encoding="UTF-8"?>
<svg width="700pt" height="700pt" version="1.1" viewBox="0 0 700 700" xmlns="http://www.w3.org/2000/svg" xmlns:xlink="http://www.w3.org/1999/xlink">
 <defs>
  <symbol id="o" overflow="visible">
   <path d="m29.312-1.75c-1.5117 0.78125-3.0898 1.3711-4.7344 1.7656-1.6367 0.40625-3.3398 0.60938-5.1094 0.60938-5.3125 0-9.5273-1.4844-12.641-4.4531-3.1055-2.9688-4.6562-7-4.6562-12.094s1.5508-9.125 4.6562-12.094c3.1133-2.9688 7.3281-4.4531 12.641-4.4531 1.7695 0 3.4727 0.19922 5.1094 0.59375 1.6445 0.39844 3.2227 0.99219 4.7344 1.7812v6.5938c-1.5312-1.0391-3.0391-1.8008-4.5156-2.2812-1.4805-0.48828-3.0391-0.73438-4.6719-0.73438-2.9375 0-5.2461 0.94531-6.9219 2.8281-1.6797 1.875-2.5156 4.4648-2.5156 7.7656 0 3.293 0.83594 5.8828 2.5156 7.7656 1.6758 1.875 3.9844 2.8125 6.9219 2.8125 1.6328 0 3.1914-0.23828 4.6719-0.71875 1.4766-0.48828 2.9844-1.2539 4.5156-2.2969z"/>
  </symbol>
  <symbol id="j" overflow="visible">
   <path d="m21.453-17.406c-0.67969-0.3125-1.3516-0.53906-2.0156-0.6875-0.65625-0.15625-1.3203-0.23438-1.9844-0.23438-1.9688 0-3.4844 0.63281-4.5469 1.8906-1.0547 1.2617-1.5781 3.0703-1.5781 5.4219v11.016h-7.6562v-23.922h7.6562v3.9219c0.97656-1.5625 2.1016-2.7031 3.375-3.4219 1.2812-0.71875 2.8125-1.0781 4.5938-1.0781 0.25 0 0.52344 0.011719 0.82812 0.03125 0.30078 0.023438 0.73438 0.070312 1.2969 0.14062z"/>
  </symbol>
  <symbol id="b" overflow="visible">
   <path d="m27.562-12.031v2.1875h-17.891c0.1875 1.793 0.83203 3.1367 1.9375 4.0312 1.1133 0.89844 2.6719 1.3438 4.6719 1.3438 1.6016 0 3.25-0.23438 4.9375-0.70312 1.6875-0.47656 3.4219-1.2031 5.2031-2.1719v5.8906c-1.8047 0.6875-3.6094 1.2031-5.4219 1.5469-1.8125 0.35156-3.6211 0.53125-5.4219 0.53125-4.3359 0-7.7031-1.0977-10.109-3.2969-2.3984-2.207-3.5938-5.2969-3.5938-9.2656 0-3.9062 1.1758-6.9727 3.5312-9.2031 2.3633-2.2383 5.6094-3.3594 9.7344-3.3594 3.7578 0 6.7695 1.1367 9.0312 3.4062 2.2578 2.2617 3.3906 5.2812 3.3906 9.0625zm-7.8594-2.5312c0-1.457-0.42969-2.6289-1.2812-3.5156-0.84375-0.89453-1.9492-1.3438-3.3125-1.3438-1.4922 0-2.6992 0.41797-3.625 1.25-0.91797 0.83594-1.4922 2.0391-1.7188 3.6094z"/>
  </symbol>
  <symbol id="a" overflow="visible">
   <path d="m14.391-10.766c-1.5938 0-2.793 0.27344-3.5938 0.8125-0.80469 0.54297-1.2031 1.3398-1.2031 2.3906 0 0.96875 0.32031 1.7305 0.96875 2.2812 0.64453 0.54297 1.5469 0.8125 2.7031 0.8125 1.4375 0 2.6445-0.51562 3.625-1.5469 0.98828-1.0312 1.4844-2.3203 1.4844-3.875v-0.875zm11.688-2.8906v13.656h-7.7031v-3.5469c-1.0312 1.4492-2.1875 2.5078-3.4688 3.1719s-2.8398 1-4.6719 1c-2.4805 0-4.4961-0.72266-6.0469-2.1719-1.543-1.4453-2.3125-3.3203-2.3125-5.625 0-2.8125 0.96094-4.8672 2.8906-6.1719 1.9375-1.3125 4.9688-1.9688 9.0938-1.9688h4.5156v-0.60938c0-1.207-0.48047-2.0938-1.4375-2.6562-0.94922-0.5625-2.4375-0.84375-4.4688-0.84375-1.6367 0-3.1562 0.16797-4.5625 0.5-1.4062 0.32422-2.7188 0.8125-3.9375 1.4688v-5.8281c1.6445-0.40625 3.2891-0.70703 4.9375-0.90625 1.6562-0.20703 3.3047-0.3125 4.9531-0.3125 4.3203 0 7.4375 0.85547 9.3438 2.5625 1.9141 1.6992 2.875 4.4609 2.875 8.2812z"/>
  </symbol>
  <symbol id="i" overflow="visible">
   <path d="m12.031-30.719v6.7969h7.875v5.4688h-7.875v10.141c0 1.1172 0.21875 1.8711 0.65625 2.2656 0.4375 0.38672 1.3125 0.57812 2.625 0.57812h3.9375v5.4688h-6.5625c-3.0234 0-5.1641-0.62891-6.4219-1.8906-1.2617-1.2578-1.8906-3.3984-1.8906-6.4219v-10.141h-3.7969v-5.4688h3.7969v-6.7969z"/>
  </symbol>
  <symbol id="h" overflow="visible">
   <path d="m19.953-20.422v-12.812h7.6875v33.234h-7.6875v-3.4531c-1.0547 1.4062-2.2148 2.4375-3.4844 3.0938-1.2734 0.65625-2.7422 0.98438-4.4062 0.98438-2.9492 0-5.3711-1.1719-7.2656-3.5156-1.8867-2.3438-2.8281-5.3594-2.8281-9.0469s0.94141-6.7031 2.8281-9.0469c1.8945-2.3438 4.3164-3.5156 7.2656-3.5156 1.6562 0 3.1172 0.33594 4.3906 1 1.2812 0.65625 2.4453 1.6836 3.5 3.0781zm-5.0469 15.484c1.6445 0 2.8945-0.59766 3.75-1.7969 0.86328-1.1953 1.2969-2.9297 1.2969-5.2031 0-2.2812-0.43359-4.0195-1.2969-5.2188-0.85547-1.1953-2.1055-1.7969-3.75-1.7969-1.625 0-2.8711 0.60156-3.7344 1.7969-0.85547 1.1992-1.2812 2.9375-1.2812 5.2188 0 2.2734 0.42578 4.0078 1.2812 5.2031 0.86328 1.1992 2.1094 1.7969 3.7344 1.7969z"/>
  </symbol>
  <symbol id="g" overflow="visible">
   <path d="m16.406-4.9375c1.6328 0 2.8828-0.59766 3.75-1.7969 0.86328-1.1953 1.2969-2.9297 1.2969-5.2031 0-2.2812-0.43359-4.0195-1.2969-5.2188-0.86719-1.1953-2.1172-1.7969-3.75-1.7969-1.6367 0-2.8906 0.60547-3.7656 1.8125-0.875 1.1992-1.3125 2.9336-1.3125 5.2031 0 2.2617 0.4375 3.9961 1.3125 5.2031 0.875 1.1992 2.1289 1.7969 3.7656 1.7969zm-5.0781-15.484c1.0508-1.3945 2.2188-2.4219 3.5-3.0781 1.2812-0.66406 2.7539-1 4.4219-1 2.9453 0 5.3672 1.1719 7.2656 3.5156 1.8945 2.3438 2.8438 5.3594 2.8438 9.0469s-0.94922 6.7031-2.8438 9.0469c-1.8984 2.3438-4.3203 3.5156-7.2656 3.5156-1.668 0-3.1406-0.33594-4.4219-1s-2.4492-1.6914-3.5-3.0781v3.4531h-7.6562v-33.234h7.6562z"/>
  </symbol>
  <symbol id="f" overflow="visible">
   <path d="m0.53125-23.922h7.6562l6.4219 16.234 5.4688-16.234h7.6562l-10.062 26.188c-1.0117 2.6641-2.1953 4.5234-3.5469 5.5781-1.3438 1.0625-3.1211 1.5938-5.3281 1.5938h-4.4219v-5.0156h2.3906c1.3008 0 2.2422-0.21094 2.8281-0.625 0.59375-0.40625 1.0547-1.1484 1.3906-2.2188l0.20312-0.65625z"/>
  </symbol>
  <symbol id="e" overflow="visible">
   <path d="m4.0156-31.891h8.2188v11.641l11.859-11.641h9.5469l-15.359 15.094 16.938 16.797h-10.281l-12.703-12.562v12.562h-8.2188z"/>
  </symbol>
  <symbol id="n" overflow="visible">
   <path d="m25.844-19.953c0.96875-1.4766 2.1172-2.6016 3.4531-3.375 1.332-0.78125 2.7969-1.1719 4.3906-1.1719 2.75 0 4.8438 0.85156 6.2812 2.5469 1.4375 1.6875 2.1562 4.1523 2.1562 7.3906v14.562h-7.6875v-12.469c0.007812-0.1875 0.019531-0.37891 0.03125-0.57812 0.007812-0.19531 0.015625-0.48438 0.015625-0.85938 0-1.6953-0.25-2.9258-0.75-3.6875-0.5-0.75781-1.3086-1.1406-2.4219-1.1406-1.4492 0-2.5703 0.60156-3.3594 1.7969-0.79297 1.1992-1.2031 2.9297-1.2344 5.1875v11.75h-7.6875v-12.469c0-2.6562-0.23047-4.3633-0.6875-5.125-0.44922-0.75781-1.2578-1.1406-2.4219-1.1406-1.4688 0-2.6055 0.60547-3.4062 1.8125-0.79297 1.1992-1.1875 2.918-1.1875 5.1562v11.766h-7.7031v-23.922h7.7031v3.5c0.9375-1.3516 2.0156-2.3672 3.2344-3.0469 1.2188-0.6875 2.5547-1.0312 4.0156-1.0312 1.6562 0 3.1133 0.40234 4.375 1.2031 1.2695 0.79297 2.2344 1.9062 2.8906 3.3438z"/>
  </symbol>
  <symbol id="d" overflow="visible">
   <path d="m3.6719-23.922h7.6562v23.922h-7.6562zm0-9.3125h7.6562v6.2344h-7.6562z"/>
  </symbol>
  <symbol id="c" overflow="visible">
   <path d="m27.734-14.562v14.562h-7.7031v-11.156c0-2.0625-0.046875-3.4844-0.14062-4.2656-0.085937-0.78125-0.24219-1.3594-0.46875-1.7344-0.30469-0.5-0.71094-0.88281-1.2188-1.1562-0.51172-0.28125-1.0938-0.42188-1.75-0.42188-1.5938 0-2.8516 0.61719-3.7656 1.8438-0.90625 1.2305-1.3594 2.9375-1.3594 5.125v11.766h-7.6562v-23.922h7.6562v3.5c1.1445-1.3945 2.3633-2.4219 3.6562-3.0781 1.3008-0.66406 2.7383-1 4.3125-1 2.7578 0 4.8516 0.85156 6.2812 2.5469 1.4375 1.6875 2.1562 4.1523 2.1562 7.3906z"/>
  </symbol>
  <symbol id="m" overflow="visible">
   <path d="m32.688-2.375c-2.0547 1-4.1836 1.75-6.3906 2.25-2.2109 0.5-4.4844 0.75-6.8281 0.75-5.3125 0-9.5273-1.4844-12.641-4.4531-3.1055-2.9688-4.6562-7-4.6562-12.094 0-5.1328 1.5781-9.1758 4.7344-12.125 3.1641-2.9453 7.5-4.4219 13-4.4219 2.125 0 4.1562 0.19922 6.0938 0.59375 1.9453 0.39844 3.7852 0.99219 5.5156 1.7812v6.5938c-1.7812-1.0078-3.5547-1.7656-5.3125-2.2656-1.7617-0.5-3.5273-0.75-5.2969-0.75-3.2734 0-5.793 0.91797-7.5625 2.75-1.7734 1.8359-2.6562 4.4492-2.6562 7.8438 0 3.375 0.85156 5.9844 2.5625 7.8281 1.707 1.8359 4.1328 2.75 7.2812 2.75 0.85156 0 1.6445-0.050781 2.375-0.15625 0.73828-0.10156 1.3984-0.26953 1.9844-0.5v-6.2031h-5.0312v-5.5h12.828z"/>
  </symbol>
  <symbol id="l" overflow="visible">
   <path d="m3.6719-33.234h7.6562v18.094l8.7969-8.7812h8.8906l-11.688 10.969 12.594 12.953h-9.2656l-9.3281-9.9688v9.9688h-7.6562z"/>
  </symbol>
  <symbol id="k" overflow="visible">
   <path d="m1.5312-23.922h7.4375l4.0156 16.484 4.0469-16.484h6.375l4.0156 16.312 4.0469-16.312h7.4375l-6.3125 23.922h-8.3438l-4.0469-16.453-4.0156 16.453h-8.3438z"/>
  </symbol>
 </defs>
 <g>
  <path d="m565.61 10.781c-2.6094-2.1797-6.2422-2.6523-9.3164-1.2109-3.0781 1.4414-5.043 4.5312-5.043 7.9297v17.5h-262.5c-39.438 0.042969-77.246 15.73-105.13 43.617-27.887 27.887-43.574 65.695-43.617 105.13h17.5c0.039062-34.797 13.879-68.16 38.484-92.766s57.969-38.445 92.766-38.484h271.25c2.3203 0 4.5469-0.92188 6.1875-2.5625s2.5625-3.8672 2.5625-6.1875v-7.5703l30.074 25.07-30.074 25.07v-7.5703c0-2.3203-0.92188-4.5469-2.5625-6.1875s-3.8672-2.5625-6.1875-2.5625h-183.75v17.5h175v17.5c0 3.3984 1.9648 6.4883 5.043 7.9297 3.0742 1.4414 6.707 0.96875 9.3164-1.2109l52.5-43.75c1.9922-1.6602 3.1445-4.1211 3.1445-6.7188s-1.1523-5.0586-3.1445-6.7188z"/>
  <path d="m341.25 70h17.5v17.5h-17.5z"/>
  <path d="m134.39 549.22c2.6094 2.1797 6.2422 2.6523 9.3164 1.2109 3.0781-1.4414 5.043-4.5312 5.043-7.9297v-17.5h262.5c39.438-0.042969 77.246-15.73 105.13-43.617 27.887-27.887 43.574-65.695 43.617-105.13h-17.5c-0.039062 34.797-13.879 68.16-38.484 92.766s-57.969 38.445-92.766 38.484h-271.25c-4.832 0-8.75 3.918-8.75 8.75v7.5703l-30.082-25.07 30.082-25.07v7.5703c0 2.3203 0.92188 4.5469 2.5625 6.1875s3.8672 2.5625 6.1875 2.5625h183.75v-17.5h-175v-17.5c0-3.3984-1.9648-6.4883-5.043-7.9297-3.0742-1.4414-6.707-0.96875-9.3164 1.2109l-52.5 43.75c-1.9922 1.6602-3.1445 4.1211-3.1445 6.7188s1.1523 5.0586 3.1445 6.7188z"/>
  <path d="m341.25 472.5h17.5v17.5h-17.5z"/>
  <path d="m187.02 316.4 9.7305 29.961c2.3906 7.3438 10.273 11.363 17.621 8.9883l9.625-3.125c5.1992 9.0703 11.359 17.555 18.375 25.305l-5.9219 8.1445c-2.1875 3.0078-3.0898 6.7578-2.5078 10.426 0.58203 3.6719 2.5977 6.957 5.6016 9.1406l25.488 18.523h0.003906c6.25 4.5352 14.992 3.1484 19.539-3.0977l5.9336-8.1641h-0.003907c9.5352 4.3008 19.512 7.5469 29.75 9.6875v10.062c0 7.7305 6.2617 13.996 13.992 14h31.5c3.7148 0 7.2734-1.4766 9.8984-4.1016s4.1016-6.1836 4.1016-9.8984v-10.062c10.238-2.1406 20.215-5.3867 29.75-9.6875l5.9219 8.1562c2.1836 3.0039 5.4727 5.0195 9.1367 5.5977 3.668 0.58203 7.418-0.31641 10.422-2.5l25.473-18.508c3.0078-2.1797 5.0273-5.4648 5.6094-9.1367 0.58594-3.668-0.3125-7.4219-2.4961-10.426l-5.9336-8.1562c7.0156-7.75 13.176-16.234 18.375-25.305l9.625 3.125c7.3516 2.3828 15.246-1.6445 17.633-8.9961l9.7305-29.953c1.1484-3.5312 0.84766-7.375-0.83984-10.688-1.6875-3.3086-4.6211-5.8125-8.1562-6.9609l-9.625-3.1133c1.1328-10.395 1.1328-20.879 0-31.273l9.625-3.1133c3.5312-1.1523 6.4609-3.6562 8.1445-6.9648 1.6836-3.3125 1.9844-7.1562 0.83203-10.684l-9.7305-29.961c-2.3945-7.3398-10.277-11.355-17.621-8.9766l-9.625 3.1133c-5.1992-9.0703-11.359-17.555-18.375-25.305l5.9219-8.1445c2.1875-3.0078 3.0898-6.7578 2.5078-10.426-0.58203-3.6719-2.5977-6.957-5.6016-9.1406l-25.48-18.523c-6.2539-4.5352-14.996-3.1484-19.539 3.0977l-5.9336 8.1641c-9.5352-4.3008-19.512-7.5469-29.75-9.6875v-10.062c0-3.7148-1.4766-7.2734-4.1016-9.8984s-6.1836-4.1016-9.8984-4.1016h-31.5c-7.7305 0-14 6.2695-14 14v10.062c-10.238 2.1406-20.215 5.3867-29.75 9.6875l-5.9219-8.1562c-2.1836-3.0039-5.4727-5.0195-9.1367-5.5977-3.668-0.58203-7.418 0.31641-10.422 2.5l-25.473 18.508c-3.0078 2.1797-5.0273 5.4648-5.6094 9.1367-0.58594 3.668 0.3125 7.4219 2.4961 10.426l5.9336 8.1562c-7.0156 7.75-13.176 16.234-18.375 25.305l-9.625-3.1133c-3.5312-1.1523-7.3789-0.85156-10.688 0.83594-3.3086 1.6836-5.8125 4.6172-6.9609 8.1484l-9.6953 29.953c-1.1523 3.5273-0.85156 7.3711 0.83203 10.684 1.6836 3.3086 4.6133 5.8125 8.1445 6.9648l9.625 3.1133c-1.1328 10.395-1.1328 20.879 0 31.273l-9.625 3.1133c-3.5312 1.1523-6.4609 3.6562-8.1445 6.9648-1.6836 3.3125-1.9844 7.1562-0.83203 10.684zm26.738-5.0156v0.003907c6.3945-2.1172 10.395-8.4648 9.5391-15.148-1.4023-10.789-1.4023-21.715 0-32.504 0.84766-6.6758-3.1562-13.016-9.5469-15.121l-9.0117-2.9219 7.5781-23.301 9.0195 2.9219c6.418 2.082 13.406-0.71094 16.625-6.6406 5.2305-9.5195 11.648-18.34 19.094-26.25 4.6406-4.8828 5.1445-12.383 1.1992-17.844l-5.582-7.6719 19.828-14.402 5.5664 7.6719h-0.003906c3.9766 5.457 11.281 7.2969 17.367 4.375 9.8164-4.6602 20.191-8.043 30.871-10.051 6.6289-1.2227 11.449-6.9961 11.461-13.738v-9.5117h24.5v9.4688c0.015625 6.7422 4.8398 12.52 11.473 13.734 10.672 2.0117 21.035 5.3906 30.844 10.047 6.0859 2.9141 13.383 1.0742 17.359-4.375l5.5742-7.6719 19.828 14.402-5.582 7.6719c-3.9453 5.4609-3.4414 12.957 1.1992 17.84 7.4492 7.9258 13.863 16.766 19.09 26.305 3.2422 5.9062 10.211 8.6836 16.625 6.6328l9.0312-2.9219 7.5781 23.293-9.0195 2.9297c-6.3984 2.1133-10.395 8.4648-9.5391 15.145 1.3984 10.793 1.3984 21.719 0 32.508-0.84766 6.6758 3.1523 13.016 9.5469 15.121l9.0117 2.9219-7.5781 23.309-9.082-2.9219c-6.418-2.0625-13.395 0.72266-16.625 6.6406-5.2305 9.5352-11.645 18.371-19.094 26.293-4.6406 4.8867-5.1445 12.383-1.1992 17.844l5.582 7.6719-19.828 14.402-5.5664-7.6719h0.003907c-3.9766-5.457-11.281-7.2969-17.367-4.375-9.8164 4.6641-20.191 8.043-30.871 10.055-6.6289 1.2188-11.449 6.9922-11.461 13.734v9.4688h-24.449v-9.4688c-0.015625-6.7422-4.8359-12.52-11.473-13.734-10.676-2.0117-21.047-5.3867-30.859-10.047-6.0898-2.8906-13.371-1.0547-17.359 4.375l-5.5742 7.6719-19.828-14.41 5.582-7.6719c3.9453-5.4609 3.4414-12.957-1.1992-17.844-7.4492-7.9219-13.863-16.762-19.09-26.301-3.2344-5.9141-10.211-8.6992-16.625-6.6328l-9.0195 2.9297-7.5547-23.301z"/>
  <path d="m350 393.75c30.168 0 59.102-11.984 80.434-33.316 21.332-21.332 33.316-50.266 33.316-80.434s-11.984-59.102-33.316-80.434c-21.332-21.332-50.266-33.316-80.434-33.316s-59.102 11.984-80.434 33.316c-21.332 21.332-33.316 50.266-33.316 80.434 0.035156 30.156 12.031 59.07 33.355 80.395s50.238 33.32 80.395 33.355zm31.062-22.75c-20.117 6.9883-42.008 6.9883-62.125 0v-21c0-7.25 5.875-13.125 13.125-13.125h35.875c7.25 0 13.125 5.875 13.125 13.125zm-46.375-75.695c0.003906-4.0625 1.6172-7.9531 4.4883-10.824 2.875-2.8711 6.7695-4.4805 10.828-4.4805 4.0625 0 7.957 1.6172 10.828 4.4883 2.8672 2.8711 4.4805 6.7656 4.4805 10.828 0 4.0586-1.6133 7.9531-4.4844 10.824-2.875 2.8711-6.7656 4.4844-10.828 4.4844-4.0586-0.003906-7.9531-1.6211-10.824-4.4883-2.8672-2.8711-4.4844-6.7656-4.4883-10.824zm15.312-111.55c28.379-0.023438 55.32 12.488 73.609 34.191 18.293 21.699 26.062 50.371 21.23 78.34-4.832 27.965-21.77 52.367-46.277 66.676v-12.957c-0.023438-7.4531-2.7695-14.641-7.7227-20.211-4.9531-5.5703-11.766-9.1406-19.168-10.039 6.7188-5.9062 10.73-14.301 11.109-23.238 0.38281-8.9375-2.9023-17.641-9.0898-24.098-6.1914-6.4609-14.746-10.109-23.691-10.109s-17.5 3.6484-23.691 10.109c-6.1875 6.457-9.4727 15.16-9.0898 24.098 0.37891 8.9375 4.3906 17.332 11.109 23.238-7.4023 0.89844-14.215 4.4688-19.168 10.039-4.9531 5.5703-7.6992 12.758-7.7227 20.211v12.957c-24.508-14.309-41.445-38.711-46.277-66.676-4.832-27.969 2.9375-56.641 21.23-78.34 18.289-21.703 45.23-34.215 73.609-34.191z"/>
  <path d="m329 232.23-1.9336 11.305c-0.55859 3.2812 0.79297 6.5938 3.4883 8.5469 2.6914 1.957 6.2617 2.2148 9.207 0.66406l10.133-5.3281 10.148 5.3281h0.003906c2.9453 1.5547 6.5234 1.3008 9.2188-0.65625 2.6992-1.957 4.0508-5.2812 3.4844-8.5664l-1.9414-11.297 8.207-7.9961c2.3867-2.3242 3.2461-5.8008 2.2148-8.9688-1.0273-3.168-3.7656-5.4805-7.0625-5.957l-11.375-1.6445-5.0742-10.281c-1.6406-2.7773-4.6211-4.4805-7.8438-4.4805-3.2266 0-6.207 1.7031-7.8477 4.4805l-5.0664 10.273-11.375 1.6445c-3.2734 0.48828-5.9922 2.7891-7.0195 5.9375-1.0273 3.1484-0.19141 6.6055 2.1641 8.9375zm20.902-11.473c1.0938 1.5312 2.6523 2.668 4.4453 3.2383-1.1172 1.5195-1.7109 3.3633-1.6953 5.25-0.89062-0.29688-1.8203-0.44531-2.7578-0.44531-0.93359-0.003906-1.8594 0.14844-2.7461 0.44531 0-1.8945-0.61328-3.7383-1.75-5.25 1.8242-0.55469 3.4219-1.6914 4.5391-3.2383z"/>
  <use x="70" y="691.25" xlink:href="#o"/>
  <use x="102.109375" y="691.25" xlink:href="#j"/>
  <use x="123.683594" y="691.25" xlink:href="#b"/>
  <use x="153.355469" y="691.25" xlink:href="#a"/>
  <use x="182.878906" y="691.25" xlink:href="#i"/>
  <use x="203.792969" y="691.25" xlink:href="#b"/>
  <use x="233.464844" y="691.25" xlink:href="#h"/>
  <use x="280.011719" y="691.25" xlink:href="#g"/>
  <use x="311.328125" y="691.25" xlink:href="#f"/>
  <use x="355.078125" y="691.25" xlink:href="#e"/>
  <use x="388.980469" y="691.25" xlink:href="#a"/>
  <use x="418.503906" y="691.25" xlink:href="#n"/>
  <use x="464.09375" y="691.25" xlink:href="#d"/>
  <use x="479.089844" y="691.25" xlink:href="#c"/>
  <use x="525.464844" y="691.25" xlink:href="#m"/>
  <use x="561.375" y="691.25" xlink:href="#d"/>
  <use x="576.371094" y="691.25" xlink:href="#c"/>
  <use x="607.519531" y="691.25" xlink:href="#l"/>
  <use x="636.613281" y="691.25" xlink:href="#a"/>
  <use x="666.136719" y="691.25" xlink:href="#b"/>
  <use x="695.808594" y="691.25" xlink:href="#k"/>
 </g>
</svg>
