<?xml version="1.0" encoding="utf-8"?>
<!-- Generator: Adobe Illustrator 24.1.3, SVG Export Plug-In . SVG Version: 6.00 Build 0)  -->
<svg version="1.1" id="Layer_1" xmlns="http://www.w3.org/2000/svg" xmlns:xlink="http://www.w3.org/1999/xlink" x="0px" y="0px"
	 viewBox="0 0 542.5 542.5" style="enable-background:new 0 0 542.5 542.5;" xml:space="preserve">
<style type="text/css">
	.st0{fill:#906D4F;}
</style>
<g>
	<path class="st0" d="M169.2,322c3.8,5.8,5.8,12.4,5.8,19.3c0,19.3-15.7,35-35,35c-6.9,0-13.5-2-19.3-5.8l-9.7,14.6
		c8.6,5.7,18.6,8.7,28.9,8.7c29,0,52.5-23.5,52.5-52.5c0-10.3-3-20.3-8.7-28.9L169.2,322z"/>
	<path class="st0" d="M140,306.3c6.9,0,13.5,2,19.3,5.8l9.7-14.6c-8.6-5.7-18.6-8.7-28.9-8.7c-29,0-52.5,23.5-52.5,52.5
		c0,10.3,3,20.3,8.7,28.9l14.6-9.7c-3.8-5.8-5.8-12.4-5.8-19.3C105,322,120.7,306.3,140,306.3L140,306.3z"/>
	<path class="st0" d="M315,367.5V420h35v-17.5h-17.5v-35H315z"/>
	<path class="st0" d="M323.8,315c-22.1,0-43.8,7.7-60.9,21.7l11.1,13.5c11.7-9.6,26.1-15.5,41.1-17.2l0,16.9h17.5v-17
		c36.4,4.1,65.4,33,69.5,69.5h-17V420h16.9c-1.7,15-7.6,29.3-17.2,41.1l13.5,11.1c14-17.1,21.7-38.8,21.7-60.9
		C420,358.2,376.8,315,323.8,315L323.8,315z"/>
	<path class="st0" d="M332.5,489.5v-16.9H315v17c-36.4-4.1-65.4-33-69.5-69.5h17v-17.5h-16.9c1.7-15,7.6-29.3,17.2-41.1l-13.5-11.1
		c-14,17.1-21.7,38.8-21.7,60.9c0,53.1,43.2,96.3,96.2,96.3c22.1,0,43.8-7.7,60.9-21.7l-11.1-13.5
		C361.8,481.8,347.5,487.8,332.5,489.5L332.5,489.5z"/>
	<path class="st0" d="M490,402.5h-17.5v-245H420v164.8c-5.3-5.8-11.2-11.1-17.5-15.8V201.3H350v81.4c-5.7-1.2-11.6-1.8-17.5-2.2V245
		H280v42.7c-8.8,3.1-17.2,7.2-25,12c-1.8-4.9-3.7-9.7-6-14.2l13.8-19.4l-47.6-47.6l-19.4,13.8c-5.8-3-11.9-5.5-18.2-7.5l-3.9-23.5
		h-67.3l-3.9,23.5c-6.3,2-12.4,4.5-18.2,7.5l-19.4-13.8l-47.6,47.6l13.8,19.4c-3,5.8-5.5,11.9-7.5,18.2L0,307.6v67.3l23.5,3.9
		c2,6.3,4.6,12.4,7.5,18.2l-13.8,19.4L64.8,464l19.4-13.8c5.8,3,11.9,5.5,18.2,7.5l3.9,23.5h67.3l3.9-23.5c6.3-2,12.4-4.5,18.2-7.5
		l3.5,2.5c17.4,52.1,66.6,89.8,124.4,89.8c69.4,0,126.3-54.2,130.8-122.5h87.9V87.5H490L490,402.5z M437.5,175H455v227.5h-0.4
		c-1.4-20.4-7.4-39.6-17.1-56.4L437.5,175z M367.5,218.8H385v76.5c-5.6-3-11.5-5.5-17.5-7.6V218.8z M297.5,262.5H315v17.9
		c-5.9,0.4-11.8,1-17.5,2.2V262.5z M192.1,432.3c-7.6,4.4-15.9,7.8-24.6,10.1l-5.4,1.5l-3.3,19.8h-37.7l-3.3-19.8l-5.4-1.5
		c-8.6-2.3-16.9-5.8-24.6-10.1l-4.9-2.8l-16.3,11.7L40,414.6l11.7-16.3l-2.8-4.9c-4.4-7.6-7.8-15.9-10.1-24.5l-1.5-5.4l-19.8-3.3
		v-37.7l19.8-3.3l1.5-5.4c2.4-8.7,5.8-16.9,10.1-24.5l2.8-4.9l-11.7-16.3l26.6-26.6L83,253l4.9-2.8c7.6-4.4,15.9-7.8,24.6-10.1
		l5.4-1.5l3.3-19.8h37.7l3.3,19.8l5.4,1.5c8.6,2.3,16.9,5.8,24.6,10.1l4.9,2.8l16.3-11.7l26.6,26.6l-11.7,16.3l2.8,4.9
		c3.8,6.6,6.7,13.7,9,21.1c-5.1,4.3-9.8,9-14.2,13.9c-8-40.1-43.4-70.4-85.8-70.4c-48.2,0-87.5,39.3-87.5,87.5
		c0,48.2,39.3,87.5,87.5,87.5c19.1,0,37.5-6.5,52.5-17.7c0,0.1,0,0.2,0,0.2c0,6.8,0.7,13.4,1.7,19.9L192.1,432.3z M209.8,346.4
		c-6.6,11.5-11.5,24.1-14.4,37.5c-13.2,17.1-33.8,27.3-55.4,27.3c-38.6,0-70-31.4-70-70c0-38.6,31.4-70,70-70s70,31.4,70,70
		C210,343,209.9,344.7,209.8,346.4L209.8,346.4z M323.8,525C261,525,210,474,210,411.3s51-113.8,113.7-113.8s113.8,51,113.8,113.8
		S386.5,525,323.8,525z M507.5,105H525v297.5h-17.5V105z"/>
	<path class="st0" d="M490,0v17.5h18.8L446.9,67L420,40.1l-41.3,41.3c-3.4-1.6-7.2-2.6-11.2-2.6c-14.5,0-26.3,11.8-26.3,26.3
		c0,4.5,1.3,8.7,3.3,12.4l-45.7,50.8c-3.1-1.3-6.5-2-10-2c-0.2,0-0.3,0-0.5,0.1l-35.2-93.8c5.7-4.8,9.4-11.9,9.4-20
		c0-14.5-11.8-26.3-26.2-26.3S210,38,210,52.5c0,1.9,0.2,3.7,0.6,5.5l-71.7,44.1c-4.5-3.6-10.1-5.9-16.4-5.9
		c-11.4,0-21,7.3-24.6,17.5h-47c-3.6-10.2-13.3-17.5-24.6-17.5C11.8,96.2,0,108,0,122.5s11.8,26.3,26.3,26.3
		c11.4,0,21-7.3,24.6-17.5h47c3.6,10.2,13.2,17.5,24.6,17.5c14.5,0,26.3-11.8,26.3-26.3c0-1.9-0.2-3.7-0.6-5.5l71.7-44.1
		c4.5,3.6,10.1,5.9,16.4,5.9c0.2,0,0.3,0,0.5-0.1l35.2,93.8c-5.7,4.8-9.4,11.9-9.4,20c0,14.5,11.8,26.3,26.3,26.3
		c14.5,0,26.3-11.8,26.3-26.3c0-4.5-1.3-8.7-3.3-12.4l45.7-50.8c3.1,1.3,6.5,2,10,2c14.5,0,26.3-11.8,26.3-26.3c0-4-1-7.8-2.6-11.2
		L420,64.9l25.6,25.6L525,27v25.5h17.5V0L490,0z M26.3,131.3c-4.8,0-8.8-3.9-8.8-8.8s3.9-8.8,8.8-8.8s8.8,3.9,8.8,8.8
		S31.1,131.3,26.3,131.3z M122.5,131.3c-4.8,0-8.8-3.9-8.8-8.8s3.9-8.8,8.8-8.8s8.8,3.9,8.8,8.8S127.3,131.3,122.5,131.3z
		 M227.5,52.5c0-4.8,3.9-8.8,8.8-8.8s8.8,3.9,8.8,8.8s-3.9,8.8-8.8,8.8S227.5,57.3,227.5,52.5z M288.8,201.3c-4.8,0-8.8-3.9-8.8-8.8
		s3.9-8.8,8.8-8.8c4.8,0,8.8,3.9,8.8,8.8S293.6,201.3,288.8,201.3z M367.5,113.8c-4.8,0-8.8-3.9-8.8-8.8s3.9-8.8,8.8-8.8
		c4.8,0,8.8,3.9,8.8,8.8S372.3,113.8,367.5,113.8z"/>
</g>
</svg>
