<?xml version="1.0" encoding="utf-8"?>
<!-- Generator: Adobe Illustrator 24.1.3, SVG Export Plug-In . SVG Version: 6.00 Build 0)  -->
<svg version="1.1" id="Layer_1" xmlns="http://www.w3.org/2000/svg" xmlns:xlink="http://www.w3.org/1999/xlink" x="0px" y="0px"
	 viewBox="0 0 367.1 372.7" style="enable-background:new 0 0 367.1 372.7;" xml:space="preserve">
<style type="text/css">
	.st0{fill-rule:evenodd;clip-rule:evenodd;fill:#906D4F;}
</style>
<g>
	<path class="st0" d="M87.7,151.3c1.6-3.9,3.4-7.6,5.5-11.3c0.5-1,1.1-1.9,1.7-2.9l-6.3-6.3c-4.7-4.7-4.7-12.3,0-17l17-17
		c4.7-4.7,12.3-4.7,17,0l6.3,6.3c0.9-0.6,1.9-1.1,2.9-1.7c3.6-2.1,7.4-3.9,11.2-5.5c3.9-1.6,7.9-3,12-4.1c1.1-0.3,2.1-0.6,3.2-0.8
		V82c0-6.7,5.4-12,12-12h24.1c6.7,0,12,5.4,12,12v8.9c1.1,0.3,2.1,0.5,3.2,0.8c4,1.1,8,2.5,11.8,4.1c3.9,1.6,7.7,3.4,11.4,5.5
		c1,0.5,1.9,1.1,2.9,1.7l6.3-6.3c4.7-4.7,12.3-4.7,17,0l17,17c4.7,4.7,4.7,12.3,0,17l-6.3,6.3c0.6,0.9,1.1,1.9,1.7,2.9
		c2.1,3.7,3.9,7.5,5.5,11.3c1.6,3.8,3,7.8,4.1,11.9c0.3,1.1,0.6,2.1,0.8,3.2h8.9c6.7,0,12,5.4,12,12v24.1c0,6.6-5.4,12-12,12h-8.9
		c-0.3,1.1-0.5,2.1-0.8,3.2c-1.1,4.1-2.5,8.1-4.1,11.9c-1.6,3.8-3.4,7.6-5.5,11.3c-0.5,1-1.1,1.9-1.7,2.9l6.3,6.3
		c4.7,4.7,4.7,12.3,0,17l-17,17c-4.7,4.7-12.3,4.7-17,0l-6.3-6.3c-0.9,0.6-1.9,1.1-2.9,1.7c-3.7,2.1-7.5,3.9-11.4,5.5
		c-3.8,1.6-7.8,2.9-11.8,4.1c-1.1,0.3-2.1,0.6-3.2,0.8v8.9c0,6.6-5.4,12-12,12h-24.1c-6.6,0-12-5.4-12-12v-8.9
		c-1.1-0.3-2.1-0.5-3.2-0.8c-4.1-1.1-8.1-2.5-12-4.1c-3.8-1.6-7.6-3.4-11.2-5.5c-1-0.5-1.9-1.1-2.9-1.7l-6.3,6.3
		c-4.7,4.7-12.3,4.7-17,0l-17-17c-4.7-4.7-4.7-12.3,0-17l6.3-6.3c-0.6-0.9-1.1-1.9-1.7-2.9c-2.1-3.7-3.9-7.4-5.5-11.2
		c-1.6-3.9-3-7.9-4.1-11.9c-0.3-1.1-0.6-2.1-0.8-3.2h-8.9c-6.6,0-12-5.4-12-12v-24.1c0-6.7,5.4-12,12-12h8.9
		c0.3-1.1,0.5-2.1,0.8-3.2C84.8,159.1,86.1,155.1,87.7,151.3L87.7,151.3z M170.3,82h24.1v18.4l9.2,2.2c0.9,0.2,1.9,0.5,2.8,0.7v0
		c3.5,1,7,2.2,10.4,3.6c3.5,1.4,6.8,3.1,10,4.9l0,0c0.8,0.5,1.7,1,2.5,1.5l8.1,4.9l13-13l17,17l-13,13l4.9,8.1
		c0.5,0.8,1,1.7,1.5,2.5l0,0c1.8,3.2,3.5,6.6,4.9,10c1.4,3.4,2.6,6.9,3.6,10.4h0c0.3,0.9,0.5,1.9,0.7,2.8l2.2,9.2h18.4v24.1h-18.4
		l-2.2,9.2c-0.2,0.9-0.5,1.9-0.7,2.8h0c-1,3.6-2.2,7.1-3.6,10.5c-1.4,3.4-3,6.7-4.9,9.9l0,0c-0.5,0.8-1,1.7-1.5,2.5l-4.9,8.1l13,13
		l-17,17l-13-13l-8.1,4.9c-0.8,0.5-1.7,1-2.5,1.5l0,0c-3.2,1.8-6.6,3.5-10,4.9c-3.4,1.4-6.9,2.6-10.4,3.6v0
		c-0.9,0.3-1.9,0.5-2.8,0.7l-9.2,2.2v18.4h-24.1v-18.4l-9.2-2.2c-0.9-0.2-1.9-0.5-2.8-0.7v0c-3.6-1-7.1-2.2-10.6-3.6
		c-3.4-1.4-6.7-3-9.9-4.8l0,0c-0.8-0.5-1.7-1-2.5-1.5l-8.1-4.9l-13,13l-17-17l13-13l-4.9-8.1c-0.5-0.8-1-1.7-1.5-2.5l0,0
		c-1.8-3.2-3.4-6.5-4.9-9.9c-1.4-3.4-2.6-7-3.6-10.5h0c-0.3-0.9-0.5-1.9-0.7-2.8l-2.2-9.2H73.9v-24.1h18.4l2.2-9.2
		c0.2-0.9,0.5-1.9,0.7-2.8h0c1-3.5,2.2-7,3.6-10.4c1.4-3.4,3.1-6.8,4.9-10l0,0c0.5-0.8,1-1.7,1.5-2.5l4.9-8.1l-13-13l17-17l13,13
		l8.1-4.9c0.8-0.5,1.7-1,2.5-1.5l0,0c3.2-1.8,6.5-3.4,9.9-4.8c3.5-1.4,7-2.6,10.6-3.6v0c0.9-0.3,1.9-0.5,2.8-0.7l9.2-2.2L170.3,82z"
		/>
	<path class="st0" d="M182.3,227.4c20.4,0,37-16.6,37-37c0-20.4-16.5-37-37-37c-20.4,0-37,16.5-37,37
		C145.3,210.8,161.9,227.4,182.3,227.4z M182.3,238.6c26.6,0,48.2-21.6,48.2-48.2s-21.6-48.2-48.2-48.2s-48.2,21.6-48.2,48.2
		S155.7,238.6,182.3,238.6z"/>
	<path class="st0" d="M109.6,4.5c0.6-3,3.6-5,6.6-4.4l42,8.4c2,0.4,3.6,1.8,4.2,3.7c0.6,1.9,0.2,4-1.1,5.5l-26.6,30.1
		c-2.1,2.3-5.6,2.5-7.9,0.5c-2.3-2.1-2.5-5.6-0.5-7.9L140,24.9C81.7,45.6,36.9,94.5,22.2,155.3c-0.7,3-3.8,4.9-6.8,4.1
		c-3-0.7-4.9-3.8-4.1-6.8c15.4-63.8,62-115.2,122.8-137.6l-20.1-4C111,10.5,109,7.5,109.6,4.5L109.6,4.5z"/>
	<path class="st0" d="M362.6,106.8c3,0.6,5,3.6,4.4,6.6l-8.4,42c-0.4,2-1.8,3.6-3.7,4.2c-1.9,0.6-4,0.2-5.5-1.1l-30.1-26.6
		c-2.3-2.1-2.5-5.6-0.5-7.9c2.1-2.3,5.6-2.5,7.9-0.5l15.5,13.7c-20.7-58.3-69.6-103-130.4-117.7c-3-0.7-4.9-3.8-4.1-6.8
		c0.7-3,3.8-4.9,6.8-4.1C278.3,24,329.6,70.6,352,131.3l4-20.1C356.6,108.2,359.6,106.2,362.6,106.8L362.6,106.8z"/>
	<path class="st0" d="M257.5,368.2c-0.6,3-3.6,5-6.6,4.4l-42-8.4c-2-0.4-3.6-1.8-4.2-3.7c-0.6-1.9-0.2-4,1.1-5.5l26.6-30.1
		c2-2.3,5.6-2.5,7.9-0.5c2.3,2.1,2.5,5.6,0.5,7.9l-13.7,15.5c58.2-20.7,103-69.6,117.7-130.4c0.7-3,3.8-4.9,6.8-4.1
		c3,0.7,4.9,3.8,4.1,6.8c-15.4,63.8-62,115.2-122.8,137.6l20.1,4C256.1,362.2,258.1,365.2,257.5,368.2L257.5,368.2z"/>
	<path class="st0" d="M4.5,265.9c-3-0.6-5-3.6-4.4-6.6l8.4-42c0.4-2,1.8-3.6,3.7-4.2c1.9-0.6,4-0.2,5.5,1.1l30.1,26.6
		c2.3,2.1,2.5,5.6,0.5,7.9c-2.1,2.3-5.6,2.5-7.9,0.5l-15.5-13.7c20.7,58.3,69.6,103,130.4,117.7c3,0.7,4.9,3.8,4.1,6.8
		c-0.7,3-3.8,4.9-6.8,4.1c-63.8-15.4-115.2-62-137.6-122.8l-4,20.1C10.5,264.5,7.5,266.5,4.5,265.9L4.5,265.9z"/>
</g>
</svg>
