<svg xmlns="http://www.w3.org/2000/svg" width="173.902" height="166.42" viewBox="0 0 173.902 166.42">
  <g id="Group_724" data-name="Group 724" transform="translate(-159.541 -97.198)" opacity="0.1">
    <g id="Group_77" data-name="Group 77" transform="translate(162.414 106.718)">
      <path id="Path_1043" data-name="Path 1043" d="M231.671,184.071H164.8V117.2h66.871Zm-61.39-5.481H226.19V122.681H170.281Z" transform="translate(-164.8 -117.2)" fill="#906d4e" stroke="#fff" stroke-width="1"/>
    </g>
    <g id="Group_78" data-name="Group 78" transform="translate(248.247 97.905)">
      <path id="Path_1044" data-name="Path 1044" d="M394.959,182.393l-42.244-42.244L394.959,97.9,437.2,140.149Zm-34.492-42.244,34.492,34.493,34.493-34.493-34.493-34.493Z" transform="translate(-352.715 -97.905)" fill="#906d4e" stroke="#fff" stroke-width="1"/>
    </g>
    <g id="Group_79" data-name="Group 79" transform="translate(160.407 196.615)">
      <path id="Path_1045" data-name="Path 1045" d="M231.291,375.4H160.407l35.442-61.385Zm-61.39-5.481h51.9l-25.948-44.942Z" transform="translate(-160.407 -314.01)" fill="#906d4e" stroke="#fff" stroke-width="1"/>
    </g>
    <g id="Group_80" data-name="Group 80" transform="translate(257.056 196.245)">
      <path id="Path_1046" data-name="Path 1046" d="M405.455,380.073q-.795,0-1.593-.036a33.651,33.651,0,0,1-31.824-31.823,33.434,33.434,0,1,1,33.417,31.859Zm-.019-61.391a27.957,27.957,0,0,0-27.923,29.28,28.127,28.127,0,0,0,26.6,26.6,27.955,27.955,0,1,0,1.323-55.879Z" transform="translate(-372.001 -313.201)" fill="#906d4e" stroke="#fff" stroke-width="1"/>
    </g>
  </g>
</svg>
