<?xml version="1.0" encoding="utf-8"?>
<!-- Generator: Adobe Illustrator 24.1.3, SVG Export Plug-In . SVG Version: 6.00 Build 0)  -->
<svg version="1.1" id="Layer_1" xmlns="http://www.w3.org/2000/svg" xmlns:xlink="http://www.w3.org/1999/xlink" x="0px" y="0px"
	 viewBox="0 0 265.1 560" style="enable-background:new 0 0 265.1 560;" xml:space="preserve">
<style type="text/css">
	.st0{fill:#906D4F;}
</style>
<g>
	<path class="st0" d="M171.7,21.3c-7.6-9.6-18.3-16.8-31.1-19.8c-30-7-59.9,11.7-66.9,41.6c-7,30,11.7,59.9,41.6,66.9
		c29.7,6.9,59.4-11.4,66.7-41c0.1-0.2,0.1-0.4,0.2-0.7C186.1,51.2,181.7,34.1,171.7,21.3L171.7,21.3z"/>
	<path class="st0" d="M33,374c1.4,0,2.8-0.1,4.2-0.4c10.7-2.3,17.5-12.8,15.2-23.5c-9.2-43-12.8-76.4-12.8-101.9
		c0-21.9,2.6-37.9,6.3-49.3c4.6-14.2,10.2-21.1,15.1-25.1v355.6c0,16.9,13.7,30.6,30.6,30.6s30.6-13.7,30.6-30.6V335.6h11.5v193.8
		c0,16.9,13.7,30.6,30.6,30.6s30.6-13.7,30.6-30.6V269.6l0-105.7c6.7-2,15.2-4.8,23.9-8.5c9.7-4.2,19.9-9.5,28.9-17.3
		c4.5-3.9,8.7-8.6,12-14.4c3.3-5.8,5.5-12.9,5.5-20.5c0-7.9-2.4-15.9-6.5-22.9c-6.2-10.6-15.7-19.7-28.8-29
		c-12.7-8.9-29.1-17.9-50.3-27.4c8.4,13.7,11.1,29.9,7.4,45.6c-0.1,0.6-0.4,1.2-0.5,1.9c13.5,7.3,23.1,13.8,29.3,19.2
		c4.8,4.1,7.4,7.5,8.6,9.7c1.2,2.2,1.2,2.9,1.2,3c0,0.1,0.1,0.1-0.4,1c-0.7,1.5-4,5-9.2,8.2c-7.7,4.9-19,9.4-28,12.2
		c-4.5,1.4-8.5,2.5-11.2,3.2c-0.4,0.1-0.7,0.2-1.1,0.3l-95.6,0c-0.8,0-1.6,0.1-2.4,0.2c-0.4,0-0.7,0-1.1,0c-4.7,0-12,0.6-20.5,3.6
		c-12.7,4.3-28,14.7-38.7,33.7C6.6,184.3,0,210.7,0,248.2c0,29.1,4,65.1,13.7,110.2C15.7,367.7,23.9,374,33,374L33,374z"/>
</g>
</svg>
