<?xml version="1.0" encoding="utf-8"?>
<!-- Generator: Adobe Illustrator 24.1.3, SVG Export Plug-In . SVG Version: 6.00 Build 0)  -->
<svg version="1.1" id="Layer_1" xmlns="http://www.w3.org/2000/svg" xmlns:xlink="http://www.w3.org/1999/xlink" x="0px" y="0px"
	 viewBox="0 0 245 560.1" style="enable-background:new 0 0 245 560.1;" xml:space="preserve">
<style type="text/css">
	.st0{fill:#906D4F;}
</style>
<g>
	<path class="st0" d="M81.7,560.1h81.7c7.8-0.1,15.2-3.2,20.7-8.8c5.5-5.5,8.5-13,8.5-20.8V393.9h33.4c5.1,0,9.9-2,13.5-5.6
		s5.6-8.4,5.6-13.5v-202c0-13.3-5.3-26-14.7-35.4c-9.4-9.4-22.1-14.7-35.4-14.7h-26.2c14.4-12.6,23-30.5,23.8-49.6
		c0.8-19.1-6.2-37.7-19.4-51.5C159.9,7.8,141.6,0,122.5,0S85.1,7.8,71.9,21.6C58.7,35.4,51.7,54,52.6,73.1
		c0.8,19.1,9.4,37,23.8,49.6H50.1c-13.3,0-26,5.3-35.4,14.7C5.3,146.8,0,159.5,0,172.8v202c0,5.1,2,9.9,5.6,13.5s8.4,5.6,13.5,5.6
		h33.4v136.6c0,7.8,3,15.3,8.5,20.8C66.4,556.9,73.9,560.1,81.7,560.1L81.7,560.1z M70,70.1c0-13.9,5.5-27.3,15.4-37.1
		c9.8-9.8,23.2-15.4,37.1-15.4s27.3,5.5,37.1,15.4c9.8,9.8,15.4,23.2,15.4,37.1s-5.5,27.3-15.4,37.1c-9.8,9.8-23.2,15.4-37.1,15.4
		c-13.9,0-27.3-5.6-37.1-15.4C75.6,97.4,70,84,70,70.1z M142.2,227.9l-19.7,25.9l-19.7-25.9l14.2-87.8h10.9L142.2,227.9z
		 M19.1,376.4c-0.9,0-1.6-0.7-1.6-1.6v-202c0-8.7,3.4-17,9.5-23.1c6.1-6.1,14.4-9.6,23.1-9.6h49.2l-13.8,85
		c-0.8,4.7,0.4,9.6,3.3,13.4l19.7,25.9v0c3.3,4.4,8.5,6.9,13.9,6.9s10.6-2.6,13.9-6.9l19.7-25.9v0c2.9-3.8,4.1-8.7,3.3-13.4
		l-13.8-85h49.2c8.7,0,17,3.5,23.1,9.6c6.1,6.1,9.5,14.4,9.5,23.1v202c0,0.9-0.7,1.6-1.6,1.6h-33.4v-70c0-4.8-3.9-8.8-8.8-8.8
		s-8.8,3.9-8.8,8.8v224.1c0.1,6.6-5.1,12-11.7,12.1h-32.1V389.5c0-4.8-3.9-8.8-8.8-8.8s-8.8,3.9-8.8,8.8v153.1H81.7
		c-6.6-0.1-11.8-5.5-11.7-12.1V306.4c0-4.8-3.9-8.8-8.8-8.8s-8.8,3.9-8.8,8.8v70L19.1,376.4z"/>
</g>
</svg>
