<?xml version="1.0" encoding="utf-8"?>
<!-- Generator: Adobe Illustrator 24.1.3, SVG Export Plug-In . SVG Version: 6.00 Build 0)  -->
<svg version="1.1" id="Layer_1" xmlns="http://www.w3.org/2000/svg" xmlns:xlink="http://www.w3.org/1999/xlink" x="0px" y="0px"
	 viewBox="0 0 470.4 476" style="enable-background:new 0 0 470.4 476;" xml:space="preserve">
<g>
	<path d="M25.2,364h39.2c7.7,0,14-6.3,14-14v-78.4c0-7.7-6.3-14-14-14H25.2c-7.7,0-14,6.3-14,14V350C11.2,357.7,17.4,364,25.2,364z
		 M28,274.4h33.6v72.8H28V274.4z"/>
	<path d="M306.7,274.1c0,4.6,3.8,8.4,8.4,8.4s8.4-3.8,8.4-8.4c0-14.4-9.4-30.9-34.9-34.4v-4.5c0-4.6-3.8-8.4-8.4-8.4
		s-8.4,3.8-8.4,8.4v4.1c-23.9,2.5-34.9,19.2-34.9,34.8c0,22.8,18.8,29.6,34.9,33.8v41.4c-11.1-1.8-18.1-8.4-18.1-17.8
		c0-4.6-3.8-8.4-8.4-8.4c-4.6,0-8.4,3.8-8.4,8.4c0,18.8,14.1,32.5,34.9,34.8v4.4c0,4.6,3.8,8.4,8.4,8.4s8.4-3.8,8.4-8.4v-4.7
		c31.2-3.9,34.9-24.9,34.9-34.5c0-24.3-18.3-32.1-34.9-36.6l0-38.1C297.3,258.4,306.7,262.8,306.7,274.1L306.7,274.1z M253.7,274.1
		c0-2.8,1-15.3,18.1-17.9v34.2C259.1,286.8,253.7,283.2,253.7,274.1z M306.7,331.4c0,4.3-0.1,14.7-18.1,17.6v-36.6
		C301,316.3,306.7,320.8,306.7,331.4z"/>
	<path d="M462,380.8h-74.7c4.3-5.9,8.2-12.3,11.5-18.9c2.1,1.3,4.6,2.1,7.2,2.1h39.2c7.7,0,14-6.3,14-14V226.8c0-7.7-6.3-14-14-14
		H406c-7.7,0-14,6.3-14,14v5.2c-7.6-11.9-17.1-22.6-28-31.5V81.2c0-7.7-6.3-14-14-14h-39.2c-7.7,0-14,6.3-14,14v90.6
		c-5.3-0.7-10.8-1-16.3-1c-4,0-7.9,0.2-11.7,0.5l0-157.4c0-7.7-6.3-14-14-14h-39.2c-7.7,0-14,6.3-14,14v183
		c-10.7,8-20.1,17.6-28,28.4v-65.8c0-7.7-6.3-14-14-14h-39.2c-7.7,0-14,6.3-14,14V350c0,7.7,6.3,14,14,14h39.2
		c1.2,0,2.4-0.2,3.5-0.5c3.1,6.1,6.7,11.8,10.7,17.3l-165.4,0c-4.6,0-8.4,3.8-8.4,8.4s3.8,8.4,8.4,8.4h180
		c23.8,23.2,56.3,37.5,92.1,37.5c34.9,0,66.6-13.5,90.2-35.6l74.1,74.1c1.6,1.6,3.8,2.5,5.9,2.5c2.2,0,4.3-0.8,5.9-2.5
		c3.3-3.3,3.3-8.6,0-11.9l-64.1-64.1H462c4.6,0,8.4-3.8,8.4-8.4C470.4,384.6,466.6,380.8,462,380.8L462,380.8z M408.8,229.6h33.6
		v33.6h-33.6V229.6z M442.4,280v67.2h-33.6v-12.5c2.5-10.2,3.9-20.8,3.9-31.8c0-7.8-0.7-15.5-2-22.9H442.4z M313.6,84h33.6v33.6
		h-33.6V84z M313.6,134.4h33.6v54.5c-10.4-6.1-21.7-10.8-33.6-13.9V134.4z M218.4,16.8H252v33.6h-33.6V16.8z M218.4,67.2H252v106.7
		c-11.9,2.6-23.2,6.8-33.6,12.4V67.2z M123.2,162.4h33.6V196h-33.6L123.2,162.4z M123.2,347.2V212.8h33.6v43.7
		c-5.4,14.4-8.4,30.1-8.4,46.4c0,15.5,2.7,30.4,7.6,44.3L123.2,347.2z M165.2,302.9c0-63.6,51.7-115.3,115.3-115.3
		c63.6,0,115.3,51.7,115.3,115.3s-51.7,115.3-115.3,115.3C216.9,418.3,165.2,366.5,165.2,302.9z"/>
</g>
</svg>
