<?xml version="1.0" encoding="utf-8"?>
<!-- Generator: Adobe Illustrator 24.1.3, SVG Export Plug-In . SVG Version: 6.00 Build 0)  -->
<svg version="1.1" id="Layer_1" xmlns="http://www.w3.org/2000/svg" xmlns:xlink="http://www.w3.org/1999/xlink" x="0px" y="0px"
	 viewBox="0 0 351.2 416.1" style="enable-background:new 0 0 351.2 416.1;" xml:space="preserve">
<style type="text/css">
	.st0{fill:#906D4F;}
</style>
<g>
	<path class="st0" d="M194,205c56.6,0,102.5-45.9,102.5-102.5S250.6,0,194,0C137.4,0,91.5,45.9,91.5,102.5S137.4,205,194,205z
		 M148.1,145l10.1-12.3c0.6-0.6,1.7-0.6,2.2-0.6s1.7,0,2.2,0.6c0,0,12.9,12.3,30.2,12.3c9,0,19-5,19-15.7c0-9-11.2-12.9-23.5-19
		c-17.4-6.7-37.5-14.6-37.5-38.6c0-17.4,14-31.9,33-35.3V20.2c0-1.7,1.7-3.4,3.4-3.4h12.3c1.7,0,3.4,1.7,3.4,3.4v16.2
		c19,2.2,29.7,12.3,29.7,12.9c0.6,0.6,0.6,2.2,0.6,3.4l-7.3,14c-0.6,0.6-0.6,1.7-2.2,1.7c-0.6,0-1.7,0-2.2-0.6
		c0,0-11.2-10.1-25.2-10.1c-12.3,0-20.7,5.6-20.7,14.6c0,10.1,11.2,14.6,24.6,19.6c17.4,6.7,37,14,37,37c-0.6,19-14,33.6-34.2,37
		V182c0,1.7-1.7,3.4-3.4,3.4h-12.3c-1.7,0-3.4-1.7-3.4-3.4v-16.2c-22.4-3.4-33.6-16.2-34.2-17.4C147,148.4,147,146.7,148.1,145
		L148.1,145z M350.8,367.9c-1.1-2.8-4.5-3.9-7.3-2.2c-12.3,6.2-25.2,12.3-38.1,17.4c-20.2-25.2-34.2-54.9-40.3-89.6h16.8
		c3.4,0,5.6-2.2,5.6-5.6c0-3.4-2.2-5.6-5.6-5.6h-19c-2.8-19.6-2.2-37.5-1.7-50.4h20.2c3.4,0,5.6-2.2,5.6-5.6c0-3.4-2.2-5.6-5.6-5.6
		H107.2C97.7,142.8,55.1,86.8,53.4,84.6c-1.7-2.2-5.6-2.8-7.8-1.1c-2.2,1.7-2.8,5.6-1.1,7.8c0.6,0.6,44.2,57.7,52.1,135v0.6
		c2.2,17.9,1.7,37.5-1.7,59.4c-5,34.2-19,67.2-40.9,98.6c-28.6-10.1-45.9-19-45.9-19c-2.8-1.7-6.2-0.6-7.3,2.2
		c-1.7,2.8-0.6,6.2,2.2,7.3c0.6,0.6,19.6,10.1,51,20.7c28,9.5,72.2,20.2,125.4,20.2c38.1,0,81.2-5.6,126-21.8
		c15.1-5,29.7-12.3,43.1-19C350.8,374.1,351.9,370.7,350.8,367.9L350.8,367.9z M251.7,281.7h-25.8v-50.4H250
		C248.9,244.7,248.9,262.1,251.7,281.7L251.7,281.7z M197.4,281.7v-50.4h17.4v50.4H197.4z M169.4,281.7v-50.4h16.8v50.4H169.4z
		 M141.4,281.7v-50.4h16.8v50.4H141.4z M106.6,281.7c2.2-17.9,2.8-34.7,1.7-50.4h21.8v50.4H106.6z M64.6,388.1
		c20.7-30.2,34.2-62.2,40.3-94.6h148.4c6.2,35.3,19.6,66.6,40.3,93.5C199,418.9,112.8,402.6,64.6,388.1L64.6,388.1z"/>
</g>
</svg>
