<svg xmlns="http://www.w3.org/2000/svg" width="156.3" height="156.3" viewBox="0 0 156.3 156.3">
  <g id="Group_721" data-name="Group 721" transform="translate(-116.169 -46.165)" opacity="0.1">
    <path id="Path_1261" data-name="Path 1261" d="M270.4,71.117a3.087,3.087,0,0,0-3.12.023L213.063,103.2V73.813a3.106,3.106,0,0,0-4.686-2.673l-46.2,27.317V49.771a3.1,3.1,0,0,0-3.106-3.106h-39.3a3.1,3.1,0,0,0-3.106,3.106V198.859a3.1,3.1,0,0,0,3.106,3.106H268.863a3.1,3.1,0,0,0,3.106-3.106V73.811a3.1,3.1,0,0,0-1.566-2.7Zm-4.645,124.639H122.877V52.876h33.088V103.9a3.106,3.106,0,0,0,4.686,2.671l46.2-27.317v29.389a3.106,3.106,0,0,0,4.686,2.673l54.221-32.062Z" transform="translate(0 0)" fill="#906d4e" stroke="#fff" stroke-width="1"/>
  </g>
</svg>
