<svg xmlns="http://www.w3.org/2000/svg" width="193.728" height="172.285" viewBox="0 0 193.728 172.285">
  <g id="Group_722" data-name="Group 722" transform="translate(0 0)" opacity="0.1">
    <path id="Path_106" data-name="Path 106" d="M279.608,343.1a3.253,3.253,0,0,0-5.488,0l-37.5,68.742a3.123,3.123,0,0,0,2.744,4.62H314.36a3.123,3.123,0,0,0,2.744-4.62Zm-34.976,67.114,32.233-59.093L309.1,410.214Z" transform="translate(-180.001 -244.177)" fill="#906d4e"/>
    <path id="Path_107" data-name="Path 107" d="M322.387,94.534a34.091,34.091,0,0,0-9.459-15.9,3.135,3.135,0,0,0-3.677-.465l-3.394,1.894h0a1.21,1.21,0,0,1-1.2.031,29.377,29.377,0,0,0-4.306-2.4.926.926,0,0,1-.488-.845V73.07a3.12,3.12,0,0,0-2.316-3.017,34.553,34.553,0,0,0-9.875-1.251,36.406,36.406,0,0,0-8.968,1.267,3.121,3.121,0,0,0-2.318,3.017v3.766a.925.925,0,0,1-.5.848,29.457,29.457,0,0,0-4.3,2.4,1.2,1.2,0,0,1-1.2-.034l-3.374-1.883h0a3.135,3.135,0,0,0-3.677.463,34.118,34.118,0,0,0-9.474,15.893,3.122,3.122,0,0,0,1.494,3.534l3.96,2.212h0a25.786,25.786,0,0,0,0,5.772l-3.96,2.212h0a3.125,3.125,0,0,0-1.494,3.537,34.093,34.093,0,0,0,9.459,15.9,3.126,3.126,0,0,0,3.677.464l3.394-1.894h0a1.209,1.209,0,0,1,1.2-.031,29.406,29.406,0,0,0,4.306,2.4.926.926,0,0,1,.488.846v3.782a3.12,3.12,0,0,0,2.316,3.017,36.413,36.413,0,0,0,9.428,1.254c.146,0,.3,0,.445,0h0a36.441,36.441,0,0,0,8.968-1.267,3.121,3.121,0,0,0,2.318-3.017v-3.766a.924.924,0,0,1,.5-.848,29.528,29.528,0,0,0,4.3-2.4,1.192,1.192,0,0,1,1.2.034l3.374,1.883h0a3.122,3.122,0,0,0,3.676-.463,34.132,34.132,0,0,0,9.476-15.893,3.124,3.124,0,0,0-1.5-3.533l-3.96-2.213h0a25.786,25.786,0,0,0,0-5.772l3.96-2.212h0A3.127,3.127,0,0,0,322.387,94.534ZM310.446,99.2h0a20.078,20.078,0,0,1,0,7.94,3.124,3.124,0,0,0,1.547,3.317l3.634,2.03h0a27.872,27.872,0,0,1-5.44,9.048l-1.279-.712h0a7.447,7.447,0,0,0-7.745.237,23.149,23.149,0,0,1-3.377,1.883,7.162,7.162,0,0,0-4.175,6.545v1.276a29.15,29.15,0,0,1-10.978.011v-1.288a7.16,7.16,0,0,0-4.168-6.542,22.866,22.866,0,0,1-3.381-1.886,7.459,7.459,0,0,0-7.745-.241l-1.3.722h0a27.856,27.856,0,0,1-5.425-9.057l3.631-2.03h0a3.125,3.125,0,0,0,1.547-3.311,20.28,20.28,0,0,1,0-7.951,3.124,3.124,0,0,0-1.547-3.311l-3.631-2.03h0a27.869,27.869,0,0,1,5.44-9.048l1.279.711h0a7.438,7.438,0,0,0,7.745-.237,23.186,23.186,0,0,1,3.377-1.883,7.165,7.165,0,0,0,4.175-6.545V75.576a29.012,29.012,0,0,1,5.114-.526,27.955,27.955,0,0,1,5.864.514v1.287a7.158,7.158,0,0,0,4.169,6.542,22.86,22.86,0,0,1,3.38,1.886,7.451,7.451,0,0,0,7.745.241l1.3-.723h0a27.832,27.832,0,0,1,5.425,9.057l-3.634,2.028a3.124,3.124,0,0,0-1.547,3.317Z" transform="translate(-191.258 -68.795)" fill="#906d4e"/>
    <path id="Path_108" data-name="Path 108" d="M321.873,121.305a15.64,15.64,0,1,0,11.042,4.581A15.63,15.63,0,0,0,321.873,121.305Zm0,25a9.383,9.383,0,1,1,6.626-2.748,9.375,9.375,0,0,1-6.626,2.748Z" transform="translate(-225.009 -102.554)" fill="#906d4e"/>
    <path id="Path_109" data-name="Path 109" d="M341.25,420H347.5v21.872H341.25Z" transform="translate(-247.511 -294.584)" fill="#906d4e"/>
    <path id="Path_110" data-name="Path 110" d="M341.25,498.75H347.5V505H341.25Z" transform="translate(-247.511 -345.212)" fill="#906d4e"/>
    <path id="Path_111" data-name="Path 111" d="M511.251,205.089H530a3.124,3.124,0,0,0,3.125-3.125v-25h6.249a3.124,3.124,0,0,0,2.372-5.157L523,149.938a3.225,3.225,0,0,0-4.743,0L499.505,171.81a3.124,3.124,0,0,0,2.372,5.157h6.249v25a3.124,3.124,0,0,0,3.125,3.125Zm9.374-48.32,11.956,13.948H530a3.124,3.124,0,0,0-3.125,3.125v25h-12.5v-25a3.124,3.124,0,0,0-3.125-3.125h-2.582Z" transform="translate(-348.769 -120.293)" fill="#906d4e"/>
    <path id="Path_112" data-name="Path 112" d="M110,148.75H91.251a3.124,3.124,0,0,0-3.125,3.125v25H81.877a3.124,3.124,0,0,0-2.372,5.157L98.253,203.9a3.12,3.12,0,0,0,4.743,0l18.748-21.873a3.124,3.124,0,0,0-2.372-5.157h-6.249v-25A3.125,3.125,0,0,0,110,148.75Zm-9.374,48.32L88.669,183.122h2.582A3.124,3.124,0,0,0,94.376,180V155h12.5v25A3.124,3.124,0,0,0,110,183.122h2.582Z" transform="translate(-78.752 -120.198)" fill="#906d4e"/>
    <path id="Path_113" data-name="Path 113" d="M81.875,315H269.354a3.125,3.125,0,0,1,3.125,3.125h0a3.125,3.125,0,0,1-3.125,3.125H81.875a3.125,3.125,0,0,1-3.125-3.125h0A3.125,3.125,0,0,1,81.875,315Z" transform="translate(-78.75 -227.079)" fill="#906d4e"/>
  </g>
</svg>
