<svg xmlns="http://www.w3.org/2000/svg" width="173.08" height="135.659" viewBox="0 0 173.08 135.659">
  <g id="Group_725" data-name="Group 725" transform="translate(-92.025 -77.781)" opacity="0.1">
    <path id="Path_1042" data-name="Path 1042" d="M95.737,78.182a3.745,3.745,0,0,0-3.336,3.8V209.318a3.748,3.748,0,0,0,3.746,3.746H260.931a3.746,3.746,0,1,0,0-7.491H99.892V81.986a3.745,3.745,0,0,0-4.155-3.8Zm146.118,24.4a3.749,3.749,0,1,0,.35,7.491h8.6L195.92,155.249l-18.2-23.173a3.747,3.747,0,0,0-5.092-.76l-56.176,39.323a3.758,3.758,0,0,0,4.33,6.144l53.25-37.277,18.433,23.407a3.747,3.747,0,0,0,5.325.585l59.393-48.92v10.474a3.746,3.746,0,1,0,7.491,0V106.327a3.746,3.746,0,0,0-3.746-3.745H242.2c-.116-.005-.234-.005-.35,0Z" transform="translate(0 0)" fill="#906d4e" stroke="#fff" stroke-width="0.75"/>
  </g>
</svg>
