<?xml version="1.0" encoding="utf-8"?>
<!-- Generator: Adobe Illustrator 24.1.3, SVG Export Plug-In . SVG Version: 6.00 Build 0)  -->
<svg version="1.1" id="Layer_1" xmlns="http://www.w3.org/2000/svg" xmlns:xlink="http://www.w3.org/1999/xlink" x="0px" y="0px"
	 viewBox="0 0 370.2 466.8" style="enable-background:new 0 0 370.2 466.8;" xml:space="preserve">
<style type="text/css">
	.st0{fill:#906D4F;}
</style>
<g>
	<path class="st0" d="M182.7,466.5c0.8,0.2,1.6,0.3,2.4,0.3s1.6-0.1,2.4-0.3c85.1-22.7,131.5-85.9,155.4-135
		c17.8-36.5,27.3-78.4,27.3-121.2V99.2c0-4.4-3.1-8.2-7.4-9.1c-1-0.2-106.3-23.4-171.2-87.4c-3.6-3.6-9.5-3.5-13.1,0
		C113.8,66.5,8.5,89.8,7.4,90.1C3.1,91,0,94.8,0,99.2v111.2c0,42.7,9.4,84.7,27.3,121.2C51.1,380.6,97.5,443.8,182.7,466.5
		L182.7,466.5z M18.7,210.4V106.6c25.1-6.3,107.4-30.3,166.4-84.3c59,54,141.3,77.9,166.4,84.3v103.8c0,39.9-8.8,79.1-25.3,112.9
		c-22,45.1-64.3,103-141.1,124.4C108.3,426.3,66,368.4,44,323.3C27.4,289.3,18.7,250.3,18.7,210.4L18.7,210.4z"/>
	<path class="st0" d="M185.1,349.9c64.2,0,116.5-52.3,116.5-116.5s-52.3-116.5-116.5-116.5S68.6,169.2,68.6,233.4
		S120.9,349.9,185.1,349.9z M185.1,135.6c53.9,0,97.8,43.9,97.8,97.8s-43.9,97.8-97.8,97.8s-97.8-43.9-97.8-97.8
		S131.1,135.6,185.1,135.6z"/>
	<path class="st0" d="M157.2,275.2c1.8,1.8,4.1,2.7,6.6,2.7s4.9-1,6.6-2.7l70.5-70.5c3.6-3.6,3.6-9.5,0-13.2s-9.5-3.6-13.2,0
		l-63.8,63.9l-21.3-21.3c-3.6-3.6-9.5-3.6-13.2,0c-3.6,3.6-3.6,9.5,0,13.2L157.2,275.2z"/>
</g>
</svg>
