<svg xmlns="http://www.w3.org/2000/svg" width="170.516" height="166.624" viewBox="0 0 170.516 166.624">
  <g id="Group_723" data-name="Group 723" transform="translate(-97.716 -33.262)" opacity="0.1">
    <path id="Path_1038" data-name="Path 1038" d="M277.01,130.952l-1.2-2.266h0l-4.519-8.522-1,12.167c-.54,6.593-6.831,10.354-12.251,12.894-2.323,1.086-4.692,2.123-7.328,3.268a153.758,153.758,0,0,0-15.365,7.392c-8.494,4.855-14.46,10.6-17.732,17.069-.271.535-.538,1.081-.8,1.644a35.8,35.8,0,0,0-9.437-4.936c-13.44-4.768-27.488-10.671-29.77-18.3l-1.16-3.874-1.934,3.552a18.384,18.384,0,0,0-1.623,4.284,85.138,85.138,0,0,0-.294,20.379c1.554,14.183,6.974,23.917,15.673,28.149a159.967,159.967,0,0,0,18.142,7.3c8.093,2.825,13.439,4.692,15.7,9.5l.952,2.031,2.269.056h2.25l1.024-2.02c.721-1.461.6-6.136-1.748-11.893l.869-3.672.01-.044c.056-.252.165-.788.279-1.55,13.035-.208,25.086-4.8,34.025-12.985,9.572-8.753,15.986-21.527,18.063-35.972C281.54,146.16,280.386,137.317,277.01,130.952ZM228,193.125c-.138-.889-.321-1.789-.557-2.731a29.9,29.9,0,0,1,5.1-5.868,87.4,87.4,0,0,1,9.336-6.955c1.961-1.33,3.988-2.7,5.932-4.166l-1.857-2.8c-1.855,1.074-3.78,2.118-5.642,3.129a118.157,118.157,0,0,0-11.5,6.816,47.083,47.083,0,0,0-3.984,3.111,27.045,27.045,0,0,0-3.274-4.787q-.3-.343-.611-.684c.419-.947.873-1.9,1.355-2.855,2.765-5.462,8.179-10.607,15.659-14.881a150.47,150.47,0,0,1,14.853-7.134c2.449-1.068,4.981-2.172,7.451-3.327,4.917-2.3,11.179-5.9,13.925-11.994a35.415,35.415,0,0,1,1.014,13.693l-.309,2.152c-1.9,13.257-7.731,24.928-16.411,32.865-7.882,7.214-18.52,11.306-30.079,11.6v-.05A33.972,33.972,0,0,0,228,193.125Zm-50.378-32.453a43.981,43.981,0,0,0,6.38,4.281,137.378,137.378,0,0,0,21.619,9.661,27.371,27.371,0,0,1,11.858,7.72,22.449,22.449,0,0,1,3.852,6.4,25.712,25.712,0,0,1,1.44,5.359,29.145,29.145,0,0,1,.342,4.378c0,.588-.014,1.144-.04,1.659-.877-1.035-1.794-2.044-2.761-3.041-6.866-7.082-13.234-9.936-15.654-10.834a15.305,15.305,0,0,0-2.12-.649l-.041-.007a2.911,2.911,0,0,0-.5-.053l-1.334.009-.331,1.256-.312,1.276,1.113.629c.725.433,1.43.886,2.026,1.272a59.079,59.079,0,0,1,11.138,9.187c1.029,1.1,1.979,2.21,2.818,3.3a34.254,34.254,0,0,1,5.714,10.649c-3.56-3.042-8.538-4.782-14.677-6.928a153.05,153.05,0,0,1-17.577-7.067C177,192.525,176.982,170.1,177.619,160.672Z" transform="translate(-49.145 -57.442)" fill="#906d4e" stroke="#fff" stroke-width="0.5"/>
    <path id="Path_1039" data-name="Path 1039" d="M165.962,40.575,158.918,52.8l-8.182,2.2,4.866-8.443a75.473,75.473,0,0,0-49.814,88.46,2.927,2.927,0,0,1-2.079,3.494l-.05.013a2.922,2.922,0,0,1-3.606-2.175A81.345,81.345,0,0,1,154.346,40.8l-8.8-5.066,8.182-2.2Z" fill="#906d4e" stroke="#fff" stroke-width="0.5"/>
    <path id="Path_1040" data-name="Path 1040" d="M467.8,143.4l-2.193,8.182-12.221,7.062-7.058-12.225,2.193-8.186,4.873,8.446a75.651,75.651,0,0,0-51.749-87.4,2.911,2.911,0,0,1-1.949-3.539l.014-.051a2.922,2.922,0,0,1,3.687-2.029,81.547,81.547,0,0,1,55.651,94.795Z" transform="translate(-199.963 -13.261)" fill="#906d4e" stroke="#fff" stroke-width="0.5"/>
    <path id="Path_1041" data-name="Path 1041" d="M276.069,439.648a2.923,2.923,0,0,1-.092,4.21,81.836,81.836,0,0,1-55.526,21.733,80.979,80.979,0,0,1-54.371-20.975l-.012,10.15-5.982-6,.021-14.113,14.115.018,5.984,6-9.744-.021A75.449,75.449,0,0,0,272,439.524a2.91,2.91,0,0,1,4.036.088Z" transform="translate(-41.162 -265.955)" fill="#906d4e" stroke="#fff" stroke-width="0.5"/>
  </g>
</svg>
